<?xml version="1.0" encoding="UTF-8"?><svg xmlns="http://www.w3.org/2000/svg" viewBox="0 0 500 500"><defs><style>.cls-1{fill:#fff;}.cls-2{stroke:#000;stroke-miterlimit:10;}</style></defs><g id="_レイヤー_2"><rect class="cls-1" width="1500" height="500"/></g><g id="_レイヤー_1"><g><g><path d="M235.44,78.77c1.68,1.8,3.38,3.58,5.02,5.42,2.26,2.54,4.42,5.18,6.72,7.68,1.6,1.74,3.65,1.72,5.27,.01,1.9-2,3.65-4.15,5.55-6.16,1.8-1.91,3.7-3.74,5.58-5.58,.8-.79,1.72-.9,2.67-.22,1.02,.73,1.31,1.76,.81,2.83-1.28,2.74-2.54,5.5-4.06,8.1-1.71,2.94-3.69,5.72-5.54,8.57-1.73,2.65-1.25,5.25,.4,7.68,3.1,4.59,6.29,9.11,9.45,13.66,2.96,4.27,5.9,8.55,8.86,12.82,2.91,4.2,5.85,8.38,8.77,12.57,2.97,4.26,5.91,8.54,8.88,12.8,2.91,4.2,5.83,8.39,8.75,12.58,2.97,4.26,5.93,8.52,8.9,12.79,2.91,4.2,5.81,8.4,8.73,12.59,2.6,3.74,5.2,7.48,7.82,11.21,3.36,4.77,6.81,9.47,10.08,14.3,1.5,2.2,2.66,4.63,3.98,6.96v2.06c-1.2,3.44-4.31,5.15-6.82,7.35-2.19,1.92-4.67,3.53-7.04,5.24-3.9,2.8-7.82,5.55-11.72,8.35-2.38,1.71-4.72,3.48-7.1,5.19-3.2,2.31-6.43,4.58-9.63,6.88-2.24,1.61-4.46,3.25-6.7,4.86-3.24,2.33-6.49,4.63-9.73,6.97-2.34,1.69-4.65,3.42-7,5.11-3.24,2.33-6.51,4.61-9.72,6.97-3.32,2.44-6.61,4.92-9.86,7.45-1.31,1.02-1.48,2.33-.38,3.59,1.17,1.33,2.55,2.49,3.93,3.62,2.23,1.83,4.53,3.57,6.8,5.36,3.6,2.83,7.2,5.68,10.8,8.51,2.17,1.71,4.32,3.45,6.54,5.09,3.07,2.27,6.21,4.44,9.29,6.69,2.6,1.9,5.23,3.77,7.73,5.8,1.44,1.17,1.86,2.85,1.18,4.65-.63,1.66-2.18,2.95-4.23,2.87-2.19-.08-3.91-.96-5.52-2.31-2.64-2.2-5.3-4.38-7.95-6.56-2.07-1.7-4.13-3.41-6.22-5.07-2.99-2.38-6.01-4.72-9.02-7.07-2.04-1.59-4.08-3.19-6.13-4.77-3.2-2.45-6.41-4.89-9.63-7.32-1.46-1.1-3.01-2.09-4.39-3.28-1.79-1.54-4.81-1.44-6.63-.06-4.23,3.2-8.56,6.27-12.85,9.4-4.08,2.98-8.14,5.98-12.23,8.94-4.98,3.61-9.98,7.2-14.96,10.81-1.51,1.1-2.98,2.26-4.52,3.32-1.23,.84-2.5,1.63-3.81,2.33-1.64,.87-3.81,.19-5.1-1.5-1.22-1.59-1.32-4.33,.13-5.57,1.99-1.7,4.19-3.15,6.36-4.63,1.89-1.29,3.89-2.42,5.78-3.71,3.4-2.32,6.78-4.68,10.11-7.09,3.03-2.19,5.96-4.51,8.97-6.72,3-2.21,6.08-4.33,9.06-6.58,2.37-1.78,4.73-3.59,6.92-5.58,1.17-1.06,.98-2.39-.27-3.44-2.31-1.93-4.69-3.79-7.07-5.64-2.28-1.77-4.59-3.49-6.89-5.24-3.1-2.37-6.2-4.74-9.29-7.14-2.89-2.24-5.74-4.52-8.64-6.75-2.86-2.2-5.75-4.35-8.61-6.55-2.22-1.71-4.41-3.47-6.63-5.18-3.57-2.74-7.16-5.44-10.72-8.19-2.22-1.71-4.4-3.48-6.62-5.19-2.99-2.31-6.04-4.53-8.98-6.9-2.97-2.4-5.91-4.85-8.7-7.45-1.9-1.76-1.92-4.54-.1-7.19,2.84-4.14,5.82-8.19,8.78-12.24,2.69-3.68,5.43-7.31,8.15-10.97,3.23-4.34,6.45-8.67,9.67-13.01,3.12-4.21,6.23-8.42,9.35-12.63,3.17-4.27,6.35-8.54,9.52-12.81,3.07-4.14,6.13-8.28,9.21-12.41,3.55-4.78,7.12-9.56,10.67-14.34,3.12-4.21,6.2-8.44,9.34-12.63,3.62-4.84,7.27-9.65,10.92-14.47,.87-1.15,1.93-2.19,2.65-3.43,1.47-2.49,.43-4.64-.95-6.89-3.04-4.93-5.91-9.97-8.74-15.02-1.15-2.05-.78-3.1,1.08-4.5h1.54Zm11.01,212.77c.88-.34,1.5-.46,1.97-.78,2.31-1.59,4.59-3.22,6.85-4.87,2.26-1.65,4.48-3.36,6.74-5.03,3.07-2.27,6.17-4.5,9.24-6.78,2.36-1.74,4.67-3.55,7.04-5.28,3.7-2.71,7.43-5.36,11.13-8.07,2.37-1.73,4.69-3.53,7.06-5.26,3.7-2.7,7.44-5.35,11.14-8.05,3.09-2.25,6.14-4.56,9.21-6.83,4.06-3,8.15-5.97,12.18-9.01,1.97-1.49,2.27-2.8,.94-4.85-3.19-4.94-6.43-9.84-9.77-14.68-3.97-5.74-8.08-11.38-12.1-17.09-4.05-5.74-8.06-11.51-12.09-17.27-4.08-5.82-8.18-11.63-12.25-17.46-3.21-4.61-6.38-9.25-9.57-13.88-3.57-5.19-7.13-10.39-10.71-15.58-3.94-5.72-7.88-11.43-11.84-17.13-1.11-1.59-2.45-1.75-4.03-.58-.37,.27-.7,.61-.97,.98-1.24,1.72-2.42,3.49-3.68,5.2-3.46,4.69-6.96,9.36-10.42,14.05-3.11,4.21-6.19,8.45-9.3,12.66-2.83,3.84-5.67,7.67-8.5,11.5-2.78,3.76-5.57,7.53-8.35,11.29-3.08,4.18-6.15,8.37-9.24,12.54-2.79,3.76-5.58,7.52-8.39,11.27-3.55,4.73-7.15,9.43-10.7,14.16-3.14,4.19-6.29,8.37-9.37,12.6-1.4,1.92-2.66,3.94-3.91,5.97-.61,.99-.31,2.08,.43,2.85,1.08,1.13,2.28,2.17,3.51,3.15,2.92,2.32,5.9,4.58,8.85,6.87,2.11,1.64,4.2,3.32,6.3,4.97,3.01,2.35,6.03,4.69,9.04,7.04,2.14,1.68,4.26,3.38,6.4,5.05,2.88,2.24,5.78,4.45,8.66,6.7,2.24,1.76,4.44,3.57,6.68,5.32,2.84,2.22,5.73,4.39,8.57,6.61,2.84,2.22,5.65,4.5,8.49,6.73,3.67,2.88,7.35,5.77,11.07,8.59,1.19,.9,2.53,1.62,3.7,2.36Z"/><path d="M212.02,296.31c.19,4.01-3.39,6.81-6.38,6.81-3.6,0-7.1-3.27-7.08-6.74,.02-3.33,2.89-6.9,7.02-6.85,3.79,.05,6.41,2.78,6.43,6.78Z"/><path d="M294.37,297.25c-.11,4-3.47,7-6.96,6.95-3.74-.06-6.81-3.15-6.7-6.7,.12-3.72,3.02-6.71,7.3-6.63,4.13,.07,6.39,3.13,6.37,6.38Z"/><path d="M261.58,218.37c-.04,4.62-1.87,8.38-5.46,11.12-3.35,2.55-7.21,3.37-11.38,2.3-7.82-2-11.4-9.26-9.98-16.87,.74-3.97,2.43-7.36,5.64-9.87,2.76-2.17,5.96-2.8,9.41-2.36,5.5,.69,10.16,6.48,11.24,11.62,.28,1.33,.36,2.71,.53,4.06Z"/></g><g><path d="M164.72,329.94c-.11,.42-.26,.83-.31,1.25-.4,3.27-1.74,3.89-4.38,2.01v-2.06c1.35-1.24,2.92-1.61,4.69-1.21h0Z"/><path d="M244.21,421.23c-.79-.68-1.12-1.57-.28-2.27,.39-.33,1.51-.34,1.92-.01,.89,.71,.48,1.59-.27,2.28h-1.37Z"/><path d="M290.58,292.52c-.83-.17-1.71-.15-2.33-.54-.64-.4-1.39-1.18-1.42-1.82-.03-.67,.6-1.74,1.2-1.98,.68-.27,2.23-.03,2.39,.37,.85,2.19,2.82,2.87,4.47,4.07,.71,.52,1.06,1.96,1,2.96-.03,.6-1.07,1.42-1.81,1.64-1.25,.37-2.13-.54-2.71-1.58-.32-.58-.47-1.27-.65-1.92-.1-.37-.1-.78-.15-1.2Z"/><path d="M246.75,333.5c1.86,.01,3.01,.98,2.95,2.49-.06,1.47-1.51,2.74-3.11,2.72-1.63-.02-3.08-1.45-3.02-2.99,.06-1.47,1.15-2.23,3.18-2.21Z"/><path d="M203.41,292.82c-.06,1.47-1.64,2.96-3.09,2.79-1.28-.15-2.04-.9-1.95-2.3,.1-1.49,1.47-2.88,2.84-2.86,1.15,.02,2.24,1.2,2.19,2.37Z"/><path d="M273.41,309.88c1.42,.04,2.53,1.13,2.49,2.46-.04,1.51-.9,2.37-2.33,2.34-1.51-.03-2.57-1.09-2.57-2.59,0-1.38,.96-2.26,2.42-2.21Z"/><path d="M164.32,254.18c-.07,.62-.04,1.17-.22,1.62-.17,.42-.51,.95-.88,1.05-.39,.1-1.18-.14-1.3-.44-.59-1.44-1.16-2.93-1.42-4.45-.07-.44,.89-1.48,1.39-1.49,.65-.01,1.58,.58,1.92,1.17,.42,.73,.37,1.74,.5,2.53Z"/><path d="M229.19,317.74c.03,1.55-.74,2.4-2.2,2.43-1.55,.02-2.57-.95-2.63-2.51-.05-1.35,.79-2.25,2.14-2.3,1.58-.06,2.66,.9,2.69,2.38Z"/><path d="M213.96,307.53c-1.62,.07-2.33-.74-2.42-2.13-.09-1.52,1.12-2.7,2.63-2.68,1.29,.02,2.26,1.1,2.22,2.47-.04,1.33-1.14,2.33-2.44,2.33Z"/><path d="M262.78,323.92c.03,1.48-1.03,2.66-2.46,2.74-1.3,.07-2.35-.97-2.37-2.36-.03-1.43,.97-2.42,2.48-2.48,1.41-.05,2.33,.77,2.36,2.09Z"/><path d="M273.64,395.88c.03,1.38-.89,2.39-2.23,2.43-1.51,.05-2.54-.95-2.52-2.51,.02-1.42,.77-2.2,2.19-2.27,1.42-.07,2.53,.95,2.56,2.34Z"/><path d="M239.71,327.62c1.5-.02,2.29,.79,2.27,2.33-.02,1.28-1.22,2.43-2.57,2.46-1.22,.02-2.25-1.01-2.27-2.27-.02-1.52,.97-2.49,2.57-2.51Z"/><path d="M220.49,313.76c-1.57-.07-2.63-1.24-2.56-2.7,.06-1.34,1.1-2.19,2.55-2.12,1.43,.07,2.4,1.25,2.27,2.82-.12,1.45-.94,2.11-2.27,2Z"/><path d="M265.4,404.55c-1.49,.02-2.57-1.01-2.64-2.5-.06-1.31,.82-2.22,2.19-2.26,1.5-.04,2.54,.88,2.59,2.3,.05,1.5-.77,2.44-2.14,2.46Z"/><path d="M313.51,355.19c-1.52,0-2.51-1.05-2.43-2.62,.07-1.32,.76-2.11,2.13-2.14,1.42-.03,2.7,1.18,2.68,2.51-.02,1.38-.95,2.26-2.39,2.26Z"/><path d="M287.03,297.92c1.31,.02,2.35,.99,2.34,2.2,0,1.41-1.22,2.6-2.63,2.57-1.26-.03-2.18-1-2.19-2.33,0-1.44,1.03-2.46,2.47-2.44Z"/><path d="M207.45,296.53c1.3,.02,2.4,1.09,2.43,2.36,.02,1.25-1.09,2.35-2.41,2.37-1.4,.02-2.35-.94-2.33-2.36,.02-1.45,.94-2.39,2.31-2.37Z"/><path d="M197.18,286.63c.01,1.35-.97,2.43-2.25,2.48-1.28,.05-2.36-.99-2.41-2.32-.06-1.42,.96-2.53,2.34-2.55,1.27-.02,2.31,1.04,2.32,2.39Z"/><path d="M261.93,261.29c-.02,1.33-1.08,2.37-2.38,2.34-1.34-.03-2.35-1.07-2.33-2.39,.03-1.35,1.05-2.35,2.38-2.34,1.32,.01,2.35,1.07,2.33,2.39Z"/><path d="M297.73,371.16c0,1.43-1.07,2.56-2.4,2.52-1.42-.04-2.41-1-2.38-2.33,.03-1.38,.97-2.35,2.33-2.39,1.46-.05,2.44,.83,2.44,2.19Z"/><path d="M179.15,348.3c1.37,.03,2.34,1.06,2.27,2.4-.07,1.44-1,2.37-2.35,2.34-1.31-.02-2.3-1.06-2.3-2.42,0-1.3,1.08-2.36,2.37-2.33Z"/><path d="M222.6,395.29c-.02,1.31-1.11,2.32-2.44,2.28-1.31-.04-2.27-.99-2.27-2.25,0-1.43,1.09-2.56,2.43-2.51,1.24,.04,2.31,1.2,2.29,2.48Z"/><path d="M175.76,344.43c.03,1.3-1.01,2.37-2.34,2.41-1.41,.04-2.34-.87-2.3-2.34,.03-1.32,.53-2.33,2.05-2.41,1.41-.07,2.57,.98,2.6,2.33Z"/><path d="M236.12,258.71c1.32-.02,2.19,.85,2.24,2.23,.05,1.39-.89,2.38-2.28,2.4-1.32,.02-2.41-1.04-2.4-2.34,.01-1.31,1.04-2.27,2.43-2.29Z"/><path d="M285.68,383.62c.02,1.53-.74,2.32-2.26,2.35-1.52,.03-2.39-.76-2.42-2.21-.03-1.32,1-2.43,2.29-2.47,1.33-.04,2.38,.98,2.39,2.33Z"/><path d="M327.62,340.91c-.04,1.2-1.25,2.28-2.52,2.26-1.29-.02-2.26-1.11-2.16-2.5,.1-1.44,.9-2.11,2.34-2.06,1.45,.05,2.4,.96,2.35,2.3Z"/><path d="M299.88,290.6c-1.4,.01-2.36-.93-2.36-2.31,0-1.49,.87-2.14,2.22-2.24,1.43-.11,2.43,.82,2.45,2.19,.02,1.39-.92,2.35-2.31,2.36Z"/><path d="M282.41,306.17c.01,1.38-1,2.48-2.32,2.38-1.42-.11-2.1-.95-2.1-2.37,0-1.55,.79-2.45,2.18-2.46,1.27-.01,2.22,1.03,2.24,2.46Z"/><path d="M233.31,321.6c1.29,.03,2.29,1.02,2.29,2.26,0,1.33-.93,2.21-2.29,2.18-1.6-.04-2.48-.82-2.47-2.2,0-1.22,1.16-2.27,2.48-2.24Z"/><path d="M225.79,403.79c-1.4-.05-2.28-1.01-2.21-2.42,.07-1.42,.96-2.22,2.45-2.19,1.42,.03,2.22,.92,2.17,2.42-.04,1.42-.94,2.24-2.41,2.19Z"/><path d="M182.99,277.25c-1.41-.04-2.47-.43-2.56-1.98-.1-1.51,.88-2.63,2.31-2.56,1.36,.07,2.23,.77,2.3,2.23,.07,1.36-.78,2.28-2.05,2.31Z"/><path d="M199.02,369.88c-.05,1.35-1.01,2.09-2.6,2.01-1.36-.07-2.22-.98-2.17-2.29,.05-1.27,1.19-2.19,2.61-2.06,1.41,.12,2.11,.94,2.16,2.34Z"/><path d="M250.3,249.66c-.03,1.28-1.03,2.13-2.4,2.06-1.64-.08-2.48-.85-2.41-2.23,.05-1.17,1.18-2.2,2.38-2.19,1.34,.02,2.46,1.11,2.43,2.36Z"/><path d="M279.52,389.9c.04,1.24-.94,2.2-2.28,2.18-1.35-.01-2.33-.59-2.49-2.01-.14-1.25,1.02-2.31,2.39-2.31,1.36,0,2.33,.87,2.37,2.14Z"/><path d="M253.32,253.07c1.27-.01,2.45,1.14,2.36,2.4-.1,1.32-.83,2.07-2.19,2.11-1.45,.04-2.46-.88-2.45-2.22,0-1.21,1.07-2.28,2.29-2.29Z"/><path d="M265.59,265.07c1.22,0,2.15,1.04,2.15,2.37,0,1.32-.98,2.37-2.17,2.35-1.22-.02-2.14-1.04-2.14-2.38,0-1.33,.94-2.34,2.17-2.34Z"/><path d="M216.51,388.92c0,1.3-.95,2.21-2.28,2.19-1.29-.02-2.15-.95-2.15-2.33,0-1.29,.95-2.21,2.28-2.2,1.26,.01,2.15,.98,2.15,2.33Z"/><path d="M253.9,328.03c1.46,.02,2.3,.8,2.29,2.12,0,1.24-1.09,2.36-2.24,2.31-1.29-.05-2.35-1.19-2.29-2.47,.06-1.31,.82-1.97,2.24-1.95Z"/><path d="M291.49,377.4c-.02,1.33-.97,2.45-2.1,2.47-1.24,.01-2.26-1.03-2.24-2.3,.02-1.33,.96-2.45,2.1-2.48,1.16-.03,2.26,1.1,2.24,2.32Z"/><path d="M334.95,252.69c-.49,2.21-.87,4.16-1.39,6.08-.09,.34-.73,.7-1.14,.72-.31,.02-.8-.41-.96-.76-.67-1.52,.69-5.13,2.14-5.8,.24-.11,.53-.1,1.35-.24Z"/><path d="M202.77,378.26c-1.42,.03-2.39-.78-2.44-2.05-.05-1.28,.94-2.27,2.24-2.25,1.26,.01,2.65,1.2,2.53,2.29-.15,1.33-1.02,1.96-2.33,2.01Z"/><path d="M193.24,363.27c-.02,1.29-.96,2.17-2.32,2.16-1.42-.01-2.31-.88-2.26-2.19,.05-1.3,1.07-2.29,2.3-2.24,1.3,.05,2.3,1.04,2.28,2.27Z"/><path d="M303.95,365.18c-.03,1.25-1.01,2.08-2.44,2.01-1.31-.06-2.16-.67-2.18-2.08-.02-1.29,.93-2.12,2.34-2.11,1.35,0,2.31,.92,2.27,2.18Z"/><path d="M210.71,382.38c-.03,1.32-1.16,2.39-2.37,2.4-1.19,.02-2.26-1.07-2.25-2.28,.01-1.32,1.02-2.14,2.5-2.1,1.42,.04,1.94,.92,2.12,1.98Z"/><path d="M266.93,320.43c-1.43,0-2.33-.84-2.27-2.17,.06-1.38,.93-2.02,2.19-2.12,1.27-.1,2.36,.92,2.38,2.13,.03,1.31-.87,2.16-2.3,2.16Z"/><path d="M231.94,266.34c-.05,1.62-1.23,2.85-2.4,2.67-1.3-.2-1.97-1.02-1.9-2.38,.07-1.44,.95-2.41,2.21-2.23,1.23,.17,2.07,.86,2.09,1.93Z"/><path d="M330.96,332.67c1.33,.02,2.29,.94,2.28,2.19,0,1.31-.95,2.23-2.33,2.08-1.17-.12-2.23-.52-2.21-2.05,.02-1.27,.98-2.25,2.26-2.23Z"/><path d="M309.75,359.48c0,1.11-.81,1.69-2.03,1.72-1.36,.03-2.35-1.04-2.28-2.4,.07-1.32,.7-2.11,2.13-2.06,1.29,.05,2.22,1.1,2.18,2.73Z"/><path d="M242,257.17c-1.08-.16-2.03-.62-2.02-2.09,0-1.25,1.04-2.29,2.32-2.17,1.22,.12,2.18,.71,2.22,2.11,.03,1.24-1.01,2.14-2.52,2.14Z"/><path d="M273.96,273.03c.03,1.43-.91,2.35-2.24,2.41-1.38,.06-2.14-.61-2.2-1.98-.05-1.29,.94-2.33,2.2-2.3,1.29,.04,2.13,.66,2.24,1.87Z"/><path d="M306.27,284.73c-1.24-.22-2.25-.62-2.28-2.1-.03-1.31,.91-2.21,2.28-2.19,1.33,.02,2.37,1.01,2.28,2.22-.1,1.43-1.12,1.84-2.28,2.06Z"/><path d="M187.18,356.91c.03,1.43-.8,2.37-2.1,2.33-1.33-.04-2.11-.75-2.2-2.1-.09-1.34,.82-2.32,2.14-2.36,1.24-.04,2.14,.84,2.16,2.12Z"/><path d="M167.93,340.53c-1.33,0-2.29-.94-2.25-2.22,.04-1.29,.72-1.97,2.04-1.99,1.44-.02,2.32,.76,2.32,2.11,0,1.39-.73,2.08-2.11,2.1Z"/><path d="M217.31,280.11c-1.26-.03-2.26-.97-2.12-2.13,.16-1.3,.89-2.06,2.28-1.99,1.31,.06,1.95,.84,2.03,2.07,.07,1.16-.96,2.08-2.2,2.05Z"/><path d="M321.6,347c-.19,1.06-.79,1.95-2.17,1.92-1.37-.03-2.03-.88-2.06-2.19-.02-1.23,1-2.23,2.12-2.18,1.12,.05,2.12,1.12,2.1,2.45Z"/><path d="M285.65,284.32c-.03,1.54-.91,2.24-2.16,2.28-1.15,.04-2.14-.46-2.2-1.86-.05-1.2,1.01-2.19,2.3-2.25,1.38-.06,1.94,.7,2.07,1.83Z"/><path d="M259.66,410.17c-1.5-.12-2.37-.62-2.38-1.99-.01-1.28,.95-2.08,2.35-2.08,1.23,0,1.96,.54,2.01,1.79,.05,1.23-1.06,2.3-1.98,2.28Z"/><path d="M247.63,161.94c-.29-1.17-1.05-2.54,.47-3.29,.7-.35,1.84-.28,2.59,.05,1.52,.66,1.07,2.01,.71,3.23h.02c-1.28-.02-2.56-.02-3.83-.02l.04,.03Z"/><path d="M223.3,274.65c-1.33-.14-1.97-1-1.97-2.27,0-1.3,.78-1.89,2.08-1.91,1.44-.02,2.13,.68,2.1,2.05-.03,1.35-.83,2.03-2.21,2.13Z"/><path d="M188.69,282.9c-1.34-.21-2.13-.88-2.11-2.25,.03-1.38,.78-2.04,2.16-2.03,1.43,0,2.05,.82,2.06,2.14,.01,1.41-.92,1.95-2.11,2.15Z"/><path d="M320.44,271.55c-.02,1.32-.8,1.96-2.01,2.08-1.28,.13-2.31-.77-2.29-1.96,.02-1.27,.75-2.01,1.99-2.12,1.22-.11,2.29,.88,2.32,2Z"/><path d="M277.52,276.96c1.51,0,2.08,.82,2.07,2.06,0,1.29-.68,1.99-2.02,1.95-1.3-.05-2.03-.72-1.96-2.02,.07-1.21,.66-2.04,1.9-1.98Z"/><path d="M310.35,276.55c.17-.9,.89-1.6,2.17-1.48,1.15,.11,1.89,.72,1.84,2-.06,1.34-.83,2.02-2.08,1.91-1.15-.1-2.08-.67-1.92-2.44Z"/><path d="M213.47,283.42c.03,1.16-.97,2.16-2.13,2.14-1.17-.02-1.72-.71-1.82-1.8-.1-1.26,.77-2.24,1.98-2.21,1.19,.03,1.87,.65,1.97,1.86Z"/><path d="M231.5,409.38c-1.24,0-1.94-.68-1.88-1.87,.05-1.15,.56-2.05,1.95-2.07,1.25-.02,1.91,.61,2,1.78,.1,1.19-.88,2.16-2.07,2.16Z"/><path d="M208.2,289.38c-.74,.51-1.44,1.35-2.22,1.44-1.18,.13-1.99-.76-2.01-2.02-.01-1.09,.53-1.82,1.73-1.86,1.29-.03,2.21,.8,2.5,2.44Z"/><path d="M177.03,271.58c-1.29-.05-2.03-.6-2.04-1.87-.01-1.28,.59-2.03,1.93-2.08,1.25-.05,1.95,.54,1.95,1.8,0,1.27-.67,1.98-1.84,2.15Z"/><path d="M207.71,202.62c1.33,0,2,.74,1.98,2.01-.02,1.2-.66,1.88-1.94,1.84-1.27-.04-1.88-.78-1.9-1.94-.02-1.16,.5-1.97,1.85-1.91Z"/><path d="M217.72,195.6c-1.33,.04-1.8-.81-1.79-1.86,.02-1.21,.67-2.03,2.02-2.02,1.29,.01,1.89,.84,1.85,1.97-.04,1.25-.83,1.94-2.09,1.9Z"/><path d="M236.5,410.94c1.1,.11,1.81,.86,1.79,2.09-.01,1.2-.71,1.82-1.98,1.77-1.3-.05-1.85-.84-1.86-1.96-.01-1.15,.58-1.93,2.05-1.9Z"/><path d="M279.3,196.52c-.25-.36-1.02-.98-1.14-1.72-.2-1.23,.64-2.06,1.89-2.1,1.15-.03,1.99,.61,1.93,1.86-.05,1.22-.69,2.01-2.68,1.95Z"/><path d="M212.72,201.01c-1.48,0-2.1-.7-2.08-1.9,.02-1.17,.59-1.93,1.88-1.92,1.26,0,1.91,.77,1.9,1.92-.01,1.12-.6,1.94-1.7,1.9Z"/><path d="M299.37,298.24c1.2,.12,1.88,.87,1.93,2.08,.05,1.12-.55,1.77-1.77,1.75-1.34-.02-1.97-.74-1.99-2-.02-1.13,.57-1.78,1.82-1.83Z"/><path d="M286.74,200.3c-.05,1.24-.74,1.72-1.9,1.72-1.38,0-1.97-.79-1.96-2.05,.01-1.17,.76-1.81,1.87-1.77,1.26,.05,1.93,.84,1.98,2.09Z"/><path d="M276.76,188.98c-.11,1.51-.79,2.11-2.03,2.06-1.39-.06-2.03-1.01-1.77-2.16,.15-.66,1.08-1.52,1.76-1.61,1.2-.17,1.94,.71,2.05,1.71Z"/><path d="M294.49,212.98c-1.23,.01-1.72-.69-1.7-1.83,.02-1.24,.77-1.9,1.92-1.91,1.17-.02,1.94,.66,1.91,1.9-.03,1.33-.84,1.89-2.13,1.84Z"/><path d="M199.77,215.29c-.47,.36-1.11,1.19-1.87,1.32-1.11,.19-1.95-.55-1.99-1.8-.03-1.21,.53-1.92,1.83-1.95,1.31-.03,1.81,.72,2.02,2.43Z"/><path d="M272.02,183.06c-.13,1.83-.79,2.48-2.02,2.44-1.26-.04-1.84-.81-1.79-2.02,.05-1.15,.87-1.92,1.87-1.76,.79,.13,1.47,.99,1.93,1.33Z"/><path d="M234.81,178.43c-.68,.49-1.31,1.25-2.07,1.41-1.15,.24-1.94-.47-1.96-1.73-.01-1.2,.68-2.11,1.81-1.96,.79,.1,1.49,.99,2.22,1.52,0,.26,0,.51,0,.77Z"/><path d="M225.94,183.86c.17-1.74,.69-2.47,1.99-2.42,1.22,.04,1.79,.77,1.74,1.86-.06,1.12-.71,2.09-1.93,1.85-.74-.14-1.35-.95-1.8-1.29Z"/><path d="M187.71,304.23c.12-1.84,.83-2.61,2.07-2.6,1.06,.02,1.83,.63,1.77,1.84-.06,1.28-.8,2.15-2.01,2.01-.74-.09-1.38-.93-1.83-1.26Z"/><path d="M261.23,171.35c.53,.66,1.37,1.27,1.51,2.01,.21,1.14-.53,1.95-1.81,1.93-1.14-.02-1.96-.68-1.8-1.78,.11-.76,.86-1.42,1.32-2.13,.26,0,.52-.02,.78-.03Z"/><path d="M298.82,218.46c-.31-.42-1.07-1.04-1.24-1.79-.27-1.21,.57-1.97,1.75-2.01,1.1-.04,1.85,.66,1.92,1.77,.08,1.23-.6,1.9-2.43,2.03Z"/><path d="M222.44,190.47c-.51-.66-1.32-1.26-1.45-1.99-.2-1.11,.59-2.04,1.73-2.08,1.13-.04,2.02,.79,1.86,1.95-.1,.74-.86,1.4-1.32,2.09-.27,0-.55,.02-.82,.03Z"/><path d="M201.97,208.07c1.96-.04,2.63,.85,2.4,1.9-.16,.71-1.11,1.66-1.8,1.74-1.07,.13-1.97-.8-1.76-1.96,.14-.73,.91-1.34,1.16-1.68Z"/><path d="M311.59,310.38c-.67,.5-1.29,1.29-2.03,1.43-1.08,.2-2.03-.38-2.03-1.69,0-1.2,.71-2.03,1.89-1.85,.76,.12,1.43,.84,2.15,1.29,0,.28,.01,.55,.02,.83Z"/><path d="M184.28,310.16c-.43-.67-1.15-1.31-1.23-2.02-.13-1.11,.61-2.14,1.79-1.9,.7,.14,1.7,1.16,1.71,1.79,0,.72-.94,1.45-1.47,2.18-.27-.01-.53-.03-.8-.04Z"/><path d="M289.51,207.51c-1.2,.04-1.83-.57-1.77-1.74,.05-1.1,.68-1.79,1.83-1.81,1.14-.03,1.84,.6,1.87,1.72,.03,1.24-.69,1.84-1.93,1.83Z"/><path d="M310.42,226.06c-.18,1.73-.7,2.47-2.02,2.39-1.22-.08-1.9-.9-1.61-1.9,.21-.74,1.14-1.67,1.83-1.74,.62-.07,1.35,.91,1.8,1.26Z"/><path d="M195.23,296.75c.51,.67,1.36,1.3,1.46,2.03,.14,1.1-.58,1.9-1.88,1.88-1.21-.01-1.91-.71-1.7-1.8,.14-.76,.88-1.4,1.35-2.1,.26,0,.52,0,.77,0Z"/><path d="M328.66,260.54c1.17-.06,1.68,.66,1.64,1.66-.04,1.19-.89,1.97-2,1.79-.59-.1-1.41-.99-1.49-1.61-.15-1.11,.55-1.91,1.84-1.85Z"/><path d="M193.24,217.95c.48,.69,1.22,1.33,1.37,2.09,.22,1.1-.63,1.62-1.69,1.62-1.08,0-1.85-.59-1.68-1.66,.11-.72,.77-1.35,1.18-2.02,.27,0,.55-.02,.82-.02Z"/><path d="M314.24,316.43c-1.56-.28-2.07-.91-2.03-1.98,.04-1.08,.69-1.63,1.75-1.65,1.06-.01,1.89,.53,1.67,1.6-.15,.74-.9,1.36-1.39,2.03Z"/><path d="M325.57,267.24c-.65,.42-1.27,1.08-1.97,1.2-1.1,.18-1.61-.68-1.6-1.7,0-1.05,.62-1.84,1.67-1.64,.7,.14,1.29,.86,1.92,1.32,0,.27-.01,.54-.02,.81Z"/><path d="M171.69,266.09c-1.15-.04-1.59-.75-1.58-1.78,.01-1.07,.71-1.89,1.68-1.67,.64,.15,1.4,1.09,1.55,1.79,.2,.97-.49,1.68-1.64,1.65Z"/><path d="M304.58,307.29c-1.49-.52-2.08-1.28-1.73-2.25,.23-.62,1.08-1.35,1.7-1.41,1.02-.09,1.73,.8,1.46,1.82-.19,.69-.93,1.23-1.43,1.84Z"/><path d="M303.77,219.28c.89,1.08,1.83,1.71,1.82,2.34,0,.61-.94,1.67-1.51,1.69-.6,.03-1.65-.86-1.76-1.48-.1-.61,.73-1.38,1.45-2.55Z"/><path d="M254.72,411.33c.48,.63,1.28,1.22,1.38,1.91,.17,1.17-.76,1.66-1.86,1.65-1.03,0-1.58-.6-1.58-1.6,0-1.06,.55-1.69,2.06-1.97Z"/><path d="M247.58,161.91c.15,.6,.56,1.29,.39,1.77-.23,.64-.83,1.4-1.42,1.58-.45,.13-1.53-.49-1.63-.94-.12-.56,.31-1.45,.79-1.88,.44-.39,1.26-.35,1.91-.51,0,0-.04-.03-.04-.03Z"/><path d="M265.45,180.09c-1.06,.02-1.97-.43-1.7-1.53,.16-.67,1.05-1.5,1.71-1.6,.48-.07,1.46,.85,1.61,1.48,.26,1.04-.53,1.63-1.62,1.65Z"/><path d="M256.21,170.31c-.47-.64-1.3-1.29-1.29-1.91,.01-.54,1.02-1.51,1.54-1.47,.6,.04,1.48,.88,1.62,1.51,.11,.51-.7,1.22-1.1,1.84-.26,.01-.51,.02-.77,.03Z"/><path d="M184.12,227.51c.4,.71,1.12,1.43,1.09,2.11-.03,.56-.96,1.07-1.49,1.61-.53-.63-1.36-1.21-1.48-1.91-.09-.53,.73-1.21,1.15-1.83,.24,0,.49,.01,.73,.02Z"/><path d="M320.82,242.77c-.42-.59-1.24-1.26-1.14-1.74,.12-.63,.95-1.5,1.54-1.55,.53-.04,1.51,.79,1.64,1.38,.21,.98-.5,1.66-2.03,1.91Z"/><path d="M329.56,247.86c.77,1.05,1.43,1.57,1.53,2.17,.18,1.15-.77,1.7-1.7,1.55-.59-.09-1.53-.95-1.48-1.36,.08-.68,.84-1.27,1.66-2.35Z"/><path d="M169.36,259.67c-1.04,.81-1.58,1.52-2.23,1.66-.98,.21-1.6-.5-1.59-1.52,0-1.07,.56-1.84,1.68-1.63,.61,.11,1.12,.75,2.15,1.49Z"/><path d="M166.86,245.78c.34,.72,.97,1.46,.92,2.16-.04,.5-.98,.93-1.53,1.4-.48-.58-1.3-1.15-1.33-1.75-.03-.59,.75-1.23,1.17-1.84l.77,.04Z"/><path d="M190.45,224.92c-1.04,.77-1.7,1.62-2.25,1.56-.57-.07-1.33-.96-1.47-1.61-.23-1.04,.68-1.56,1.58-1.39,.61,.11,1.14,.74,2.14,1.44Z"/><path d="M173,243.16c-1.03,.8-1.66,1.66-2.21,1.61-.56-.04-1.47-1.01-1.44-1.53,.03-.57,.9-1.35,1.53-1.51,.43-.11,1.09,.7,2.11,1.43Z"/><path d="M251.39,161.93c.62,.24,1.46,.31,1.81,.76,.36,.47,.46,1.36,.27,1.95-.11,.35-1.15,.77-1.47,.6-.53-.29-1.03-.99-1.15-1.59-.1-.53,.35-1.16,.56-1.74,0,0-.02,.01-.02,.01Z"/><path d="M174.58,240.68c-.41-.58-1.08-1.12-1.19-1.76-.2-1.1,.73-1.56,1.61-1.36,.6,.14,1.44,.83,1.48,1.33,.05,.56-.69,1.18-1.08,1.78-.27,0-.54,0-.82,.01Z"/><path d="M237.17,174.79c-.37-.62-1.09-1.29-1.02-1.86,.06-.52,.99-1.32,1.5-1.29,.51,.03,1.3,.9,1.36,1.46,.05,.52-.71,1.12-1.11,1.68-.24,0-.48,0-.72,.01Z"/><path d="M317.1,234.11c.77,.99,1.46,1.5,1.55,2.09,.13,.91-.46,1.77-1.49,1.53-.57-.13-1.31-.89-1.37-1.43-.06-.52,.64-1.14,1.31-2.19Z"/><path d="M312.75,233.84c-.72-1.01-1.52-1.65-1.43-2.12,.12-.62,.94-1.1,1.46-1.64,.49,.52,1.31,1.01,1.37,1.57,.06,.53-.69,1.15-1.4,2.19Z"/><path d="M180.07,310.28c.65,1.07,1.36,1.72,1.33,2.34-.02,.44-1.06,1.2-1.59,1.15-.48-.04-1.16-.96-1.21-1.54-.04-.47,.72-1.01,1.46-1.95Z"/><path d="M323.55,324.3c-.56-.1-1.26-.03-1.64-.34-.54-.44-.97-1.13-1.16-1.79-.07-.24,.8-1.09,1.03-1.01,.63,.2,1.34,.65,1.64,1.2,.28,.53,.08,1.32,.08,1.99l.05-.04Z"/><path d="M242.13,170.52c-.71-1-1.45-1.59-1.36-2.03,.12-.62,.85-1.13,1.31-1.68,.51,.51,1.33,.97,1.43,1.55,.08,.49-.68,1.12-1.38,2.15Z"/><path d="M177.42,316.47c-.91,.56-1.52,1.24-2,1.15-.52-.1-.91-.9-1.36-1.4,.53-.48,1.01-1.24,1.6-1.33,.4-.06,.95,.81,1.76,1.58Z"/><path d="M179.19,232.15c.68,1.03,1.33,1.61,1.36,2.21,.02,.42-.79,1.13-1.33,1.25-.93,.21-1.57-.48-1.4-1.41,.11-.58,.69-1.08,1.37-2.06Z"/><path d="M327.39,245.58c-.83,.69-1.36,1.46-1.86,1.45-.51-.01-1.46-.86-1.41-1.24,.08-.59,.76-1.38,1.33-1.53,.4-.11,1.05,.68,1.94,1.32Z"/><path d="M320.15,318.6c-.96,.65-1.53,1.34-2.01,1.27-.51-.07-1.31-.87-1.28-1.31,.03-.5,.8-1.28,1.31-1.34,.47-.05,1.04,.68,1.97,1.37Z"/><path d="M240.76,415.7c.6,1.05,1.25,1.67,1.15,2.13-.11,.51-.91,1.23-1.39,1.21-.44-.02-1.16-.86-1.2-1.37-.03-.47,.69-1,1.44-1.97Z"/><path d="M247.75,417.84c.94-.66,1.49-1.36,2-1.32,.48,.03,.91,.83,1.36,1.29-.48,.45-.91,1.17-1.45,1.26-.43,.08-.99-.61-1.92-1.24Z"/><path d="M171.81,321.95c-.66-.95-1.33-1.49-1.33-2.04,0-.46,.78-.91,1.22-1.37,.46,.48,1.18,.91,1.28,1.45,.08,.44-.58,1.03-1.17,1.96Z"/><path d="M167.99,321.64c.64,.77,1.31,1.24,1.25,1.59-.09,.51-.69,.94-1.07,1.4-.43-.41-1.08-.76-1.22-1.26-.1-.34,.5-.88,1.04-1.73Z"/><path d="M323.5,324.34c.62,.08,1.29,.04,1.83,.29,.44,.2,.81,.7,1.03,1.15,.08,.17-.37,.85-.58,.85-.51,0-1.2-.12-1.48-.46-.4-.49-.5-1.23-.74-1.86,0,0-.05,.05-.05,.05Z"/><path d="M164.72,329.94c-.3-.53-.76-1.04-.83-1.6-.06-.43,.29-.99,.61-1.37,.12-.14,.91-.02,.97,.14,.18,.47,.29,1.06,.16,1.53-.14,.48-.59,.87-.91,1.31,0,0,0,0,0,0Z"/></g><g><path class="cls-2" d="M163.73,366.34c-.29,.29-.78,.49-1.11,.45l.62-.66c-.25-.08-.66-.04-.91,.21s-.91,.78-1.73,1.44l.74,.16c-4.49,3.87-10,7.28-14.77,9.38l-.37,2.26c-.78-.41-1.4,0-2.26,0-2.51,0-3.33-2.76-4.24-3.95,.17-.45,.29-.99,.33-1.56l1.03-.45c.58-.29,.99-.54,1.28-1.23,.66-1.52,.95-2.84,1.44-4.65l-.16-.62c.58-1.85,1.85-3.25,1.93-4.86,.04-1.15-1.48-1.89-1.44-2.92,.04-1.07,2.06-1.6,3.13-2.18l.41,.29c1.93-2.1,2.06-6.34,4.24-6.34,.37,0,1.85,2.43,2.06,2.96,.16,.66-.21,1.44-.37,2.3,1.4,0,2.92-.41,5.02-.12-.41,.78,.82,.58,1.07,0,.41,.33,1.56,.21,2.47,.49,3.79,1.15,3.99,4.32,4.2,6.09-.7,1.07-1.69,2.63-2.59,3.5Zm-17,9.92l-.08,.41,1.15-.62,.21-.49-1.28,.7Zm3.66-13.33l-.04,1.28c-.16,.21-.49,.33-.74,.62v.04c.66-.54,.58,1.32,.21,1.32-.21-.04-.37-.12-.54-.25v.04c.16,.25,.25,.53,.29,.86-.04,.95-.86,2.1-1.07,3.66,1.48-.91,4.81-2.22,6.87-3.99,.16,.17,.33,.17,.62,.25l-.25-.58,.37-.25c.16,.29,.33,.33,.41,.33,.41,0,1.19-.66,2.63-2.35,1.07,.37,3.21-2.39,2.96-3.91-6.96,0-9.51,2.22-11.73,2.92Zm-1.89,12.84l2.1-1.03c-.16-.08-.29-.45-.08-.7v-.04c-.62,.33-1.65,1.28-2.02,1.73v.04Zm9.96-6.09c-.74,0-1.4,.41-2.22,.95-.91,.58-2.35,1.4-3.66,2.22-.04,.25-.17,.54-.45,.7-.29-.29-.74-.17-1.19,.25,.25,0,.66,.12,.95,.29,2.35-1.44,4.69-3.17,6.58-4.36v-.04Zm1.15-1.23l-1.36,.74c.25,.16,.58,.25,.86,0l.86-.62-.37-.12Zm3.79-3.21l-.33,.37,.54,.12,.33-.37-.54-.12Z"/><path class="cls-2" d="M189.62,370.41c.21,.41-.08,.86-.54,.86l-.29-.54c-.33,.08-.58,.25-.33,.7-.45,0-1.19,.37-1.19,.82,0,.62-.7,.41-1.19,.54-.45,.45-.82,.99-1.32,1.65l-.45-.41c-1.07,.66-.49,1.11-1.6,1.65-.66,.33-1.44,.29-2.18,.45-.12,.12,.37,.29,.33,.45l-.74,.25-1.15-.7c-.66,.41-.16,1.36-.99,1.65-.99,.33-1.77,.62-2.92,.99-.7-.7-1.52-.45-2.1,0-1.44-.91-3.21-2.26-4.28-3.17-.99-.78-1.32-2.8-1.32-4.77,0-10,12.47-16.46,15.56-16.46,1.19,0,1.77,.74,3.05,1.73,0,1.89,2.02,3.42,3.7,4.57,1.6,1.07,2.14,3.13,2.14,5.35,0,1.36-.7,3.21-2.18,4.4Zm-4.44-8.44c-.12-.37-.21-.62-.37-.45-.16,.17-.33,.25-.45,.25-.29,0-.45-.33-.49-.33-2.18,0-5.97,2.51-7.7,5.23-1.98,.95-3.33,3.29-4.24,6.13,.95-.08,2.18-.17,2.92-.45l7.41-3.09c.82-.33,2.59-1.19,3.37-2.18l1.85-2.43-2.3-2.67Zm-10.21,4.61c-.62-.37-1.36,.21-1.44,.66,0,.25,.12,.45,.49,.49l.95-1.15Zm.17,11.44c-.17-.25-.45-.45-.74-.45-.17,.04-.33,.08-.49,.25l1.23,.21Zm5.39-2.88c0,.12-.16,.41-.08,.49,.16,.12,.49,0,.7-.08,0-.29-.21-.41-.62-.41Zm2.22-1.19c-.74,.37-1.03,.58-.99,1.03l1.19-.62-.21-.41Zm1.15-.99l-.66,.7,.16,.45,.82-.49c-.12-.12-.21-.58-.33-.66Z"/><path class="cls-2" d="M216.09,370.95c-.86,.58-1.52,.74-1.93,.7-.49,0-.62-.08-.7-.21-.74,.74,.45,1.36,3.25,.25,.21-.04,.53,.08,.37,.17-.78,.37-2.51,1.28-3.09,1.28-.95,0-1.65,.25-2.51,.54-2.59,.91-6.71,2.47-9.67,3.66-.54,.21-1.4,1.03-1.89,1.07-.49,.08-1.52,.17-2.06,.17-.33,0-.58-.21-.7-.45h-.95c-.62-.62-1.32-1.89-1.85-1.89h-.49c.7-7.24,8.11-18.35,11.85-23.17v-.66c2.3,0,3.5,1.85,3.5,3.83,0,.49-2.1,5.19-2.84,6.54-.49,.86-1.81,2.1-2.51,3.09-.37,.54-.62,1.61-.95,2.18-.45,.82-1.85,1.52-1.36,2.72,2.8-.86,3.33-.95,3.66-1.03,.45-.12,.99-.25,1.52-.25,.66,0,1.28,.21,1.6,.78,.21-.21,1.85-.86,2.06-.86,.58,0,.62,.21,1.19,.21,.53,0,2.67-.7,4.07-1.11,.04,.08,.21,.17,.49,.21v.04c-1.28,.41-2.96,.82-4.03,1.48l.41,.25c1.28-.45,3.87-1.6,5.31-1.93,.49,.17,1.07,.54,1.11,.62,.62-.25,1.69-.82,1.73-.54,.12,.58-2.51,1.81-4.61,2.35Zm-14.98-2.8c-.29,.74-.78,1.44-.25,1.69l.74-1.56-.49-.12Zm10.78,4.32c-2.18,.41-6.75,2.1-9.59,3.5l.04,.16,10.21-3.37-.66-.29Zm-8.4-7.49c-.41,0-.58,.49-.58,.74h.58v-.74Zm5.27,5.93l.91-.49c-.21-.12-.66-.17-1.15,.16l.25,.33Zm7.9-2.43c-.12,.04-.45-.16-.33-.21l.82-.25c.45-.12,.41,.12,.21,.21l-.7,.25Zm1.07,3.09c-.29,.12-.45,.04-.58-.12v-.04c2.43-1.07,2.72-1.23,3.05-.99l-2.47,1.15Zm1.56-2.96c-.21-.17-.41-.29-.62-.37,.16-.12,1.6-.62,1.6-.41,0,.25-.7,.58-.99,.78Z"/><path class="cls-2" d="M235.31,365.84l-.33-.29c-2.8,1.65-5.84,3.87-7.12,3.05-.49,.82-1.44,3.25-1.65,3.25s-.08-1.07-.54-.29c-.45,.82-1.4,2.47-1.32,3.66,0,.25,.66-.16,.58,.08l-1.85,5.39c-.12,.41-.33,1.36-.37,1.89-.37,0-2.63-.82-3.21-1.65-.66-.99-.86-2.43-.86-3.25,1.32-4.07,4.4-11.28,6.63-16.05-.62-.45-1.23-1.03-1.56-1.44,.29-.37,.54-.95,.62-1.44l-1.03-.25c.29-.41,.78-.7,1.11-.91v-.66c3.91,.25,3.5-4.57,5.06-4.57,.41,0,.62,.08,.91,.17,.62,.21,1.15,.54,1.85,.62,.33,.82,.74,1.56,.91,2.47,1.28,.04,2.55,.08,4.03,.33,2.18,.33,3.5,1.15,3.5,3.5,0,2.88-2.18,4.16-5.35,6.38Zm-10.08,8.85c-.16,0-.41,.25-.54,.12,.12-.58,.58-1.61,.82-1.69,.58-.25-.08,1.03-.29,1.56Zm6.13-8.35h-.54c-.54,0-.99,.58-1.07,1.15,.99-.29,2.14-.86,3-1.36-.49-.54-.74,.21-1.4,.21Zm1.23-.66c.33,0,.37,.41,.7,.21l.7-.41c-.21-.21-1.07-.29-1.4,.21Zm1.77-.82c-.16,.12,.16,.41,.58,.12,.82-.49,2.3-1.19,1.98-1.65l-2.55,1.52Zm3.29-2.06c-.21,.12-.41,.16-.49,.41-.12,.33,.91,.08,.91-.37,0-.12-.21-.17-.41-.04Z"/><path class="cls-2" d="M238.15,372.51l-.78,.17c0-.12,.54-.54,.91-.86,.08-.08,.21-.08,.12,.08l-.25,.62Zm19.01,4.98c.53,.29-.21,1.52-.66,2.39-.62,1.15-1.23,3.42-1.85,3.42-1.11-.66-3.54-2.26-3.54-4.07,0-2.47,1.81-6.21,3.05-8.48l-.21-.37c-.99,0-4.53,.49-4.9,.49-.12-.16-.33-.29-.53-.29-.66,0-.99,.49-1.23,1.11-.78,1.89-2.1,6.75-2.51,8.64-.86,0-1.07-.45-1.56-.95,0,0-.04,.04-.08,.04-.04,.04-.08,.04-.12,.04h-.21c-.16,0-.29-.08-.45-.12l.21-.49c-2.47-1.61-1.11-3.13-.62-6.34-.95-.21-2.26-.04-3.33-.04,.45-.82,1.32-.99,2.06-1.36l-.66-.37,2.39-.99c.25-.62,.58-.91,.86-1.48,.74-1.36,.99-3.25,1.73-4.65,1.93-3.66,4.53-7.66,5.8-10.86,.16-.12,.04-.33,.58-.33,2.18,0,2.02,1.28,3.21,2.39,.04,1.4,.33,2.39-.29,4.49h-.29c-.41,1.32-1.89,3.33-2.76,5.14-.78,.37-1.28,1.19-1.28,1.93l.86-.25c1.15-1.36,2.8-1.52,4.4-1.52,.54,0,1.36,.25,1.98,.45,2.55-3.17,4.16-6.83,6.05-10.45,.16-.29,.54-.49,.95-.49,1.44,0,1.98,2.1,1.98,3.66,0,.95-.12,2.06-.78,2.55-.12,1.15-.54,2.26-1.48,2.8,.33,.78-.95,2.3-1.56,3.42-.54-.17-1.23,.41-1.52,.91-.29,.49-.78,1.44-1.15,2.22-.08,.17,.25,.37,.45-.04l.49-1.03c.21-.41,.58-.74,.95-.7-1.32,2.35-1.93,4.73-3.54,7.04l-.45-.16c-.16-.08-.53,.16-.7,.41-.16,.29-.49,.78-.82,1.36-.37,.58,0,1.56,.04,1.98-.29,.49-.86,.91-.86,1.44,.29,.62,1.03-.58,1.93-2.47Zm-10.95-5.31l.37,.12,.45-1.23c-.37,0-.62,.58-.82,1.11Zm5.51,1.28l.45,.17c-.25,1.11-.82,1.48-.91,1.48l.45-1.65Zm3.17,4.98l-.41,.82,.25,.33,.7-1.4c-.12,0-.41,0-.54,.25Zm1.93-1.6c-.08,.16-.21,.16-.21,.04l-.04-.45,.62-.91c.08-.12,.21-.21,.29-.12l.12,.12-.78,1.32Zm2.39-6.09l-1.69,3.29c.49-.04,.86-.74,1.11-1.28l1.11-2.26c-.16-.04-.45,.08-.53,.25Z"/><path class="cls-2" d="M281.45,359.67h-.45c-1.11,1.56-1.77,4.44-3.66,5.47l.16,.49-1.6,.91c-1.6,2.3-2.3,5.14-3.21,7.49-.12,.33-.66,.99-.12,1.15,.12,.04,.41-.82,.45-.95,.95-2.14,1.65-5.35,3.13-7.04,.58-.21,.17,.29,.08,.41-1.44,2.43-2.14,5.23-3.33,8.11-.82,1.93-1.11,3.7-.91,4.53-.74-.25-1.4-.53-2.06-.91v-1.32c-.29,.25-.41,.54-.45,.99-.95-.7-1.73-1.65-2.26-3.09,0-7.41,7.65-17.53,10.62-22.96,.25-.33,.78-.58,1.23-.58,.41,0,.82,.17,1.28,.29v.99c.82,.33,1.48,1.28,1.48,2.18,0,1.11-.16,2.59-.37,3.83Zm-9.63,16.42l-.45,1.11c-.04,.12,.08,.54,.33,.12l.58-1.44c-.58-.58-.41,.08-.45,.21Z"/><path class="cls-2" d="M296.26,359.67h-.45c-1.11,1.56-1.77,4.44-3.66,5.47l.16,.49-1.6,.91c-1.6,2.3-2.3,5.14-3.21,7.49-.12,.33-.66,.99-.12,1.15,.12,.04,.41-.82,.45-.95,.95-2.14,1.65-5.35,3.13-7.04,.58-.21,.17,.29,.08,.41-1.44,2.43-2.14,5.23-3.33,8.11-.82,1.93-1.11,3.7-.91,4.53-.74-.25-1.4-.53-2.06-.91v-1.32c-.29,.25-.41,.54-.45,.99-.95-.7-1.73-1.65-2.26-3.09,0-7.41,7.65-17.53,10.62-22.96,.25-.33,.78-.58,1.23-.58,.41,0,.82,.17,1.28,.29v.99c.82,.33,1.48,1.28,1.48,2.18,0,1.11-.16,2.59-.37,3.83Zm-9.63,16.42l-.45,1.11c-.04,.12,.08,.54,.33,.12l.58-1.44c-.58-.58-.41,.08-.45,.21Z"/><path class="cls-2" d="M311.08,359.67h-.45c-1.11,1.56-1.77,4.44-3.66,5.47l.16,.49-1.6,.91c-1.6,2.3-2.3,5.14-3.21,7.49-.12,.33-.66,.99-.12,1.15,.12,.04,.41-.82,.45-.95,.95-2.14,1.65-5.35,3.13-7.04,.58-.21,.17,.29,.08,.41-1.44,2.43-2.14,5.23-3.33,8.11-.82,1.93-1.11,3.7-.91,4.53-.74-.25-1.4-.53-2.06-.91v-1.32c-.29,.25-.41,.54-.45,.99-.95-.7-1.73-1.65-2.26-3.09,0-7.41,7.65-17.53,10.62-22.96,.25-.33,.78-.58,1.23-.58,.41,0,.82,.17,1.28,.29v.99c.82,.33,1.48,1.28,1.48,2.18,0,1.11-.16,2.59-.37,3.83Zm-9.63,16.42l-.45,1.11c-.04,.12,.08,.54,.33,.12l.58-1.44c-.58-.58-.41,.08-.45,.21Z"/><path class="cls-2" d="M325.89,359.67h-.45c-1.11,1.56-1.77,4.44-3.66,5.47l.16,.49-1.6,.91c-1.6,2.3-2.3,5.14-3.21,7.49-.12,.33-.66,.99-.12,1.15,.12,.04,.41-.82,.45-.95,.95-2.14,1.65-5.35,3.13-7.04,.58-.21,.17,.29,.08,.41-1.44,2.43-2.14,5.23-3.33,8.11-.82,1.93-1.11,3.7-.91,4.53-.74-.25-1.4-.53-2.06-.91v-1.32c-.29,.25-.41,.54-.45,.99-.95-.7-1.73-1.65-2.26-3.09,0-7.41,7.65-17.53,10.62-22.96,.25-.33,.78-.58,1.23-.58,.41,0,.82,.17,1.28,.29v.99c.82,.33,1.48,1.28,1.48,2.18,0,1.11-.16,2.59-.37,3.83Zm-9.63,16.42l-.45,1.11c-.04,.12,.08,.54,.33,.12l.58-1.44c-.58-.58-.41,.08-.45,.21Z"/><path class="cls-2" d="M353.1,355.23c.45-.29,1.28-.49,2.14-.54,1.48-.04,2.63,.17,3.33,.66l-.82,.58,.08,.17c.29,0,1.07-.25,1.32-.41l1.15,1.23c-2.14,.99-5.97,3.83-8.07,6.71-.25,.33-.41-.17-.66,0-.08,1.48-.95,2.26-1.93,3.83-.21,.37-.12,.91-.37,1.48,0,.25-.62,.49-.74,.86-1.03,3.17-2.43,6.46-3.74,9.83l-1.85-.86-.25,.58c-2.63-.7-2.88-1.73-3.25-4.49-.12-1.07,.21-2.92-.08-3.83-.99-2.88-.04-4.12-.29-6.21l-.21-1.61c-1.28,.41-2.72,1.65-3.79,3.58l.12,.66c-2.06,3.87-3.91,9.22-5.76,11.69h-1.15c-1.19,0-1.85-2.76-2.35-3l-.25-1.81c-.21-1.28,.16-1.73,.45-2.51,2.92-7.08,7.61-11.36,10.86-14.69,1.23,.45,4.61,2.55,5.19,4.07,.49,1.24,.99,3.83,1.4,5.51,2.8-4.86,6.91-10.91,7.82-11.23l.86-.12c-2.55,2.51-4.36,5.47-5.35,6.91-.37,.62-.53,.86-.45,.91l.25,.17c1.19-1.85,3.95-5.76,6.38-8.11Zm-16.3,2.88l-.91,.95c.49,.41,.95-.41,1.23-.7l-.33-.25Zm12.26,13.09l-.37-.25c.04-.58,.08-1.36,.58-1.15l-.21,1.4Zm3.25-9.55c-.33,.49-.99,1.36-.58,1.56l.86-1.32c.08-.12-.21-.37-.29-.25Zm-.21-4.36l.7-.91-.33-.17c-.21,.17-.45,.45-.7,.86,.04,.08,.17,.25,.33,.21Zm1.28,2.92l-.82,1.07c.25-.04,.33,.04,.37,.21l.74-1.07c.08-.08-.08-.45-.29-.21Zm3.13-3.42l.08,.37c.41-.29,.78-.33,.7-.95l-.78,.58Z"/></g></g></g></svg>