<?xml version="1.0" encoding="UTF-8"?><svg id="_レイヤー_1" xmlns="http://www.w3.org/2000/svg" viewBox="0 0 1000 500"><defs><style>.cls-1{stroke:#000;stroke-miterlimit:10;}</style></defs><g><path d="M205.12,99.61c1.47,1.58,2.97,3.14,4.41,4.76,1.99,2.23,3.88,4.55,5.9,6.74,1.4,1.53,3.2,1.51,4.63,0,1.67-1.76,3.21-3.64,4.87-5.41,1.59-1.68,3.25-3.29,4.9-4.9,.71-.69,1.51-.79,2.34-.2,.89,.64,1.15,1.54,.71,2.48-1.12,2.4-2.23,4.83-3.56,7.12-1.5,2.58-3.24,5.02-4.87,7.53-1.52,2.33-1.09,4.61,.35,6.75,2.72,4.03,5.53,8,8.3,11.99,2.6,3.75,5.18,7.51,7.78,11.26,2.56,3.68,5.14,7.36,7.7,11.04,2.6,3.74,5.19,7.5,7.8,11.24,2.56,3.69,5.12,7.37,7.69,11.05,2.6,3.74,5.21,7.49,7.81,11.23,2.56,3.69,5.11,7.38,7.67,11.06,2.28,3.28,4.56,6.57,6.87,9.84,2.95,4.19,5.98,8.32,8.86,12.56,1.31,1.94,2.34,4.07,3.49,6.11v1.81c-1.05,3.03-3.79,4.52-5.99,6.45-1.93,1.69-4.1,3.1-6.19,4.6-3.42,2.46-6.87,4.88-10.29,7.33-2.09,1.5-4.15,3.05-6.23,4.56-2.81,2.03-5.64,4.02-8.46,6.05-1.97,1.41-3.92,2.86-5.88,4.27-2.84,2.05-5.7,4.07-8.54,6.12-2.06,1.48-4.09,3.01-6.15,4.49-2.84,2.05-5.72,4.05-8.54,6.12-2.91,2.14-5.81,4.32-8.66,6.55-1.15,.9-1.3,2.05-.33,3.15,1.03,1.17,2.24,2.19,3.45,3.18,1.96,1.61,3.98,3.14,5.97,4.7,3.16,2.49,6.32,4.99,9.49,7.47,1.91,1.5,3.79,3.03,5.74,4.47,2.69,1.99,5.45,3.9,8.16,5.88,2.29,1.67,4.6,3.31,6.79,5.1,1.26,1.03,1.64,2.51,1.04,4.08-.56,1.46-1.91,2.59-3.71,2.52-1.93-.07-3.43-.85-4.84-2.03-2.31-1.94-4.65-3.85-6.98-5.76-1.82-1.49-3.63-2.99-5.47-4.45-2.63-2.09-5.28-4.14-7.92-6.21-1.79-1.4-3.58-2.81-5.39-4.19-2.81-2.15-5.63-4.29-8.46-6.43-1.28-.97-2.64-1.84-3.85-2.88-1.57-1.35-4.23-1.26-5.82-.06-3.72,2.81-7.52,5.51-11.29,8.25-3.58,2.61-7.15,5.25-10.74,7.85-4.37,3.17-8.77,6.32-13.14,9.49-1.33,.96-2.62,1.99-3.97,2.92-1.08,.74-2.19,1.43-3.35,2.04-1.44,.77-3.35,.17-4.48-1.31-1.07-1.4-1.16-3.8,.12-4.89,1.74-1.49,3.68-2.77,5.58-4.07,1.66-1.13,3.42-2.12,5.08-3.26,2.98-2.04,5.95-4.11,8.88-6.23,2.66-1.93,5.24-3.96,7.88-5.9,2.64-1.95,5.34-3.81,7.96-5.78,2.08-1.57,4.15-3.16,6.08-4.9,1.03-.93,.86-2.1-.24-3.02-2.03-1.7-4.12-3.33-6.21-4.95-2-1.56-4.03-3.07-6.05-4.61-2.72-2.08-5.45-4.17-8.16-6.27-2.54-1.97-5.04-3.97-7.59-5.93-2.51-1.93-5.05-3.82-7.56-5.75-1.95-1.5-3.87-3.05-5.82-4.55-3.13-2.41-6.29-4.78-9.42-7.19-1.95-1.5-3.87-3.05-5.81-4.56-2.62-2.03-5.31-3.97-7.89-6.06-2.61-2.11-5.19-4.26-7.64-6.54-1.66-1.55-1.68-3.99-.09-6.32,2.49-3.64,5.11-7.19,7.71-10.75,2.36-3.23,4.77-6.42,7.16-9.63,2.83-3.81,5.67-7.62,8.5-11.43,2.74-3.69,5.47-7.4,8.21-11.09,2.78-3.75,5.58-7.5,8.36-11.25,2.7-3.63,5.39-7.27,8.09-10.9,3.12-4.2,6.25-8.39,9.37-12.6,2.74-3.69,5.45-7.41,8.2-11.1,3.18-4.25,6.39-8.48,9.59-12.71,.77-1.01,1.69-1.93,2.33-3.01,1.29-2.19,.38-4.08-.84-6.05-2.67-4.33-5.19-8.75-7.68-13.19-1.01-1.8-.69-2.73,.95-3.95h1.35Zm9.67,186.87c.77-.3,1.31-.4,1.73-.69,2.03-1.4,4.03-2.83,6.02-4.28,1.99-1.45,3.94-2.95,5.92-4.42,2.7-1.99,5.42-3.96,8.12-5.95,2.07-1.53,4.1-3.12,6.18-4.64,3.25-2.38,6.52-4.71,9.77-7.08,2.08-1.52,4.12-3.1,6.2-4.62,3.25-2.37,6.53-4.69,9.78-7.07,2.71-1.98,5.39-4,8.09-6,3.56-2.64,7.15-5.24,10.7-7.91,1.73-1.31,1.99-2.46,.83-4.26-2.8-4.33-5.65-8.65-8.58-12.89-3.49-5.04-7.1-10-10.63-15.01-3.56-5.04-7.08-10.11-10.62-15.16-3.58-5.11-7.19-10.21-10.75-15.34-2.82-4.05-5.61-8.13-8.4-12.19-3.14-4.56-6.26-9.13-9.4-13.68-3.46-5.02-6.92-10.04-10.4-15.04-.97-1.4-2.15-1.54-3.54-.51-.32,.24-.62,.54-.85,.86-1.09,1.51-2.13,3.07-3.24,4.57-3.04,4.12-6.11,8.22-9.15,12.34-2.73,3.7-5.44,7.42-8.17,11.12-2.48,3.37-4.98,6.73-7.47,10.1-2.44,3.31-4.89,6.61-7.33,9.92-2.71,3.67-5.4,7.35-8.11,11.01-2.45,3.31-4.9,6.61-7.37,9.89-3.12,4.15-6.28,8.28-9.4,12.44-2.76,3.68-5.53,7.35-8.23,11.07-1.23,1.69-2.34,3.46-3.43,5.24-.54,.87-.28,1.82,.37,2.51,.95,1,2,1.91,3.08,2.77,2.57,2.04,5.19,4.02,7.77,6.04,1.85,1.44,3.68,2.92,5.54,4.37,2.64,2.07,5.3,4.11,7.94,6.18,1.88,1.47,3.74,2.97,5.62,4.44,2.53,1.97,5.08,3.91,7.6,5.88,1.97,1.54,3.9,3.14,5.87,4.67,2.5,1.95,5.03,3.85,7.52,5.8,2.5,1.95,4.96,3.95,7.46,5.91,3.23,2.53,6.45,5.06,9.72,7.54,1.05,.79,2.22,1.42,3.25,2.07Z"/><path d="M184.55,290.67c.17,3.53-2.98,5.98-5.6,5.98-3.16,0-6.23-2.87-6.21-5.92,.02-2.93,2.54-6.06,6.17-6.01,3.33,.04,5.63,2.44,5.65,5.96Z"/><path d="M256.87,291.5c-.09,3.51-3.05,6.15-6.12,6.1-3.28-.05-5.98-2.76-5.88-5.88,.1-3.27,2.65-5.89,6.41-5.83,3.63,.06,5.61,2.75,5.59,5.61Z"/><path d="M228.07,222.22c-.03,4.05-1.64,7.36-4.8,9.77-2.94,2.24-6.34,2.96-10,2.02-6.87-1.76-10.02-8.13-8.76-14.82,.65-3.48,2.14-6.47,4.95-8.67,2.43-1.9,5.23-2.46,8.26-2.08,4.83,.61,8.92,5.69,9.88,10.21,.25,1.17,.32,2.38,.47,3.57Z"/></g><g><path d="M143,320.21c-.09,.37-.23,.73-.27,1.1-.35,2.87-1.52,3.42-3.84,1.77v-1.81c1.18-1.09,2.56-1.42,4.12-1.06h0Z"/><path d="M212.81,400.39c-.7-.6-.98-1.38-.25-2,.35-.29,1.33-.3,1.68,0,.78,.62,.42,1.4-.23,2h-1.2Z"/><path d="M253.54,287.34c-.73-.15-1.5-.13-2.05-.48-.56-.35-1.22-1.03-1.25-1.6-.03-.59,.53-1.53,1.06-1.74,.59-.24,1.96-.03,2.1,.33,.74,1.92,2.48,2.52,3.93,3.57,.63,.46,.93,1.73,.88,2.6-.03,.53-.94,1.25-1.59,1.44-1.1,.32-1.87-.48-2.38-1.39-.28-.51-.42-1.11-.57-1.69-.09-.33-.09-.68-.13-1.05Z"/><path d="M215.05,323.33c1.63,.01,2.64,.86,2.59,2.19-.05,1.29-1.32,2.4-2.73,2.39-1.44-.02-2.71-1.27-2.66-2.63,.05-1.29,1.01-1.96,2.8-1.95Z"/><path d="M176.98,287.6c-.05,1.29-1.44,2.6-2.71,2.45-1.12-.13-1.79-.79-1.71-2.02,.08-1.31,1.29-2.53,2.5-2.51,1.01,.02,1.97,1.05,1.93,2.08Z"/><path d="M238.46,302.59c1.25,.04,2.22,1,2.18,2.16-.04,1.32-.79,2.08-2.05,2.06-1.33-.03-2.26-.96-2.26-2.27,0-1.21,.84-1.98,2.12-1.94Z"/><path d="M142.65,253.67c-.06,.55-.03,1.02-.19,1.42-.15,.37-.45,.84-.78,.92-.34,.09-1.03-.13-1.14-.39-.52-1.27-1.02-2.57-1.24-3.91-.07-.38,.78-1.3,1.22-1.31,.57-.01,1.39,.51,1.69,1.03,.37,.64,.32,1.53,.44,2.22Z"/><path d="M199.62,309.49c.03,1.36-.65,2.11-1.93,2.13-1.36,.02-2.25-.83-2.31-2.2-.05-1.18,.69-1.98,1.88-2.02,1.38-.05,2.33,.79,2.36,2.09Z"/><path d="M186.24,300.53c-1.43,.06-2.05-.65-2.12-1.87-.08-1.33,.98-2.37,2.31-2.35,1.14,.02,1.98,.96,1.95,2.17-.03,1.17-1,2.05-2.14,2.05Z"/><path d="M229.12,314.92c.03,1.3-.9,2.34-2.16,2.41-1.14,.06-2.06-.85-2.09-2.07-.02-1.26,.85-2.13,2.17-2.17,1.24-.04,2.05,.68,2.07,1.84Z"/><path d="M238.66,378.12c.03,1.21-.78,2.1-1.96,2.14-1.33,.05-2.23-.83-2.21-2.2,.02-1.24,.67-1.93,1.92-1.99,1.25-.06,2.22,.84,2.25,2.06Z"/><path d="M208.87,318.17c1.32-.02,2.01,.7,1.99,2.04-.02,1.13-1.07,2.14-2.26,2.16-1.07,.02-1.98-.89-2-2-.02-1.34,.85-2.19,2.26-2.21Z"/><path d="M191.98,306c-1.38-.06-2.31-1.09-2.25-2.37,.06-1.17,.96-1.93,2.24-1.86,1.26,.07,2.11,1.1,1.99,2.47-.11,1.27-.83,1.86-1.99,1.75Z"/><path d="M231.43,385.73c-1.31,.02-2.26-.89-2.32-2.2-.05-1.15,.72-1.95,1.92-1.99,1.32-.04,2.23,.77,2.28,2.02,.05,1.31-.68,2.14-1.88,2.16Z"/><path d="M273.68,342.39c-1.33,0-2.21-.92-2.13-2.3,.06-1.16,.67-1.85,1.87-1.88,1.25-.03,2.37,1.03,2.36,2.2-.01,1.21-.83,1.99-2.1,1.98Z"/><path d="M250.42,292.09c1.15,.02,2.06,.87,2.06,1.93,0,1.24-1.07,2.28-2.31,2.26-1.11-.02-1.92-.88-1.92-2.04,0-1.27,.9-2.16,2.17-2.14Z"/><path d="M180.53,290.86c1.14,.01,2.11,.96,2.13,2.07,.02,1.1-.96,2.06-2.12,2.08-1.23,.02-2.06-.83-2.04-2.07,.02-1.27,.83-2.1,2.03-2.08Z"/><path d="M171.51,282.17c.01,1.18-.85,2.13-1.98,2.18-1.12,.04-2.07-.87-2.12-2.04-.05-1.24,.85-2.22,2.06-2.24,1.12-.02,2.02,.92,2.04,2.1Z"/><path d="M228.38,259.91c-.02,1.17-.95,2.08-2.09,2.05-1.18-.02-2.07-.94-2.04-2.1,.02-1.19,.92-2.07,2.09-2.06,1.16,.01,2.06,.94,2.05,2.1Z"/><path d="M259.82,356.41c0,1.25-.94,2.25-2.11,2.22-1.25-.03-2.11-.88-2.09-2.04,.02-1.21,.86-2.06,2.05-2.1,1.29-.04,2.14,.73,2.15,1.93Z"/><path d="M155.68,336.33c1.2,.03,2.06,.93,2,2.11-.06,1.27-.88,2.08-2.06,2.06-1.15-.02-2.02-.94-2.02-2.12,0-1.15,.94-2.07,2.08-2.04Z"/><path d="M193.83,377.6c-.02,1.15-.97,2.04-2.15,2-1.15-.04-2-.87-2-1.98,0-1.26,.96-2.24,2.13-2.2,1.09,.04,2.03,1.05,2.01,2.18Z"/><path d="M152.69,332.94c.03,1.14-.89,2.08-2.05,2.12-1.24,.04-2.06-.76-2.02-2.05,.03-1.16,.47-2.05,1.8-2.12,1.24-.06,2.25,.86,2.28,2.05Z"/><path d="M205.71,257.65c1.16-.02,1.92,.74,1.97,1.96,.04,1.22-.78,2.09-2,2.11-1.16,.02-2.11-.91-2.1-2.05,.01-1.15,.91-2,2.14-2.01Z"/><path d="M249.24,367.35c.01,1.34-.65,2.03-1.98,2.06-1.34,.03-2.1-.67-2.13-1.94-.03-1.16,.88-2.14,2.01-2.17,1.16-.03,2.09,.86,2.1,2.04Z"/><path d="M286.07,329.84c-.04,1.05-1.09,2-2.22,1.98-1.14-.02-1.98-.98-1.9-2.2,.08-1.27,.79-1.85,2.05-1.81,1.28,.04,2.11,.84,2.07,2.02Z"/><path d="M261.7,285.66c-1.23,.01-2.07-.82-2.07-2.03,0-1.31,.76-1.88,1.95-1.97,1.26-.09,2.14,.72,2.15,1.92,.02,1.22-.81,2.06-2.03,2.08Z"/><path d="M246.36,299.33c.01,1.21-.88,2.17-2.03,2.09-1.24-.09-1.85-.83-1.85-2.08,0-1.36,.7-2.15,1.91-2.16,1.12,0,1.95,.91,1.97,2.16Z"/><path d="M203.25,312.88c1.13,.03,2.01,.9,2.01,1.98,0,1.16-.82,1.94-2.01,1.91-1.4-.03-2.17-.72-2.17-1.93,0-1.07,1.02-1.99,2.17-1.96Z"/><path d="M196.64,385.07c-1.23-.05-2-.89-1.94-2.12,.06-1.25,.84-1.95,2.15-1.93,1.25,.02,1.95,.81,1.91,2.13-.04,1.25-.83,1.97-2.12,1.92Z"/><path d="M159.05,273.93c-1.24-.03-2.17-.38-2.25-1.74-.08-1.33,.77-2.31,2.03-2.25,1.2,.06,1.96,.67,2.02,1.96,.06,1.2-.69,2-1.8,2.03Z"/><path d="M173.12,355.29c-.04,1.19-.89,1.84-2.28,1.76-1.2-.06-1.95-.86-1.9-2.01,.05-1.12,1.04-1.92,2.29-1.81,1.24,.11,1.85,.83,1.89,2.06Z"/><path d="M218.16,249.7c-.03,1.12-.9,1.87-2.11,1.81-1.44-.07-2.17-.75-2.12-1.96,.05-1.03,1.03-1.93,2.09-1.92,1.17,.02,2.16,.97,2.14,2.07Z"/><path d="M243.82,372.87c.04,1.08-.82,1.93-2,1.92-1.18-.01-2.04-.52-2.18-1.77-.12-1.1,.9-2.02,2.1-2.03,1.2,0,2.04,.76,2.08,1.88Z"/><path d="M220.81,252.7c1.12,0,2.15,1,2.07,2.11-.08,1.16-.73,1.82-1.93,1.85-1.27,.04-2.16-.77-2.15-1.95,0-1.07,.94-2,2.01-2.01Z"/><path d="M231.59,263.24c1.07,0,1.89,.91,1.88,2.08,0,1.16-.86,2.08-1.91,2.07-1.07-.01-1.88-.92-1.88-2.09,0-1.17,.83-2.06,1.91-2.05Z"/><path d="M188.49,372.01c0,1.14-.83,1.94-2,1.93-1.13-.01-1.89-.84-1.89-2.05,0-1.13,.84-1.94,2-1.93,1.11,.01,1.89,.86,1.89,2.05Z"/><path d="M221.33,318.53c1.29,.02,2.02,.7,2.02,1.86,0,1.09-.96,2.07-1.97,2.03-1.13-.05-2.06-1.05-2.01-2.17,.05-1.15,.72-1.73,1.96-1.72Z"/><path d="M254.34,361.89c-.01,1.17-.86,2.16-1.84,2.17-1.09,.01-1.98-.91-1.97-2.02,.01-1.17,.85-2.15,1.84-2.18,1.02-.03,1.98,.97,1.97,2.04Z"/><path d="M292.51,252.36c-.43,1.94-.77,3.66-1.22,5.34-.08,.3-.64,.61-1,.63-.27,.02-.71-.36-.84-.67-.59-1.33,.61-4.51,1.88-5.09,.21-.1,.47-.09,1.18-.21Z"/><path d="M176.42,362.65c-1.25,.03-2.1-.69-2.14-1.8-.04-1.12,.82-1.99,1.97-1.98,1.1,.01,2.33,1.05,2.22,2.01-.13,1.16-.89,1.72-2.05,1.77Z"/><path d="M168.05,349.48c-.01,1.13-.85,1.9-2.04,1.9-1.24,0-2.03-.77-1.99-1.93,.04-1.14,.94-2.01,2.02-1.97,1.14,.05,2.02,.92,2.01,2Z"/><path d="M265.28,351.15c-.03,1.1-.89,1.82-2.14,1.76-1.15-.06-1.9-.59-1.92-1.83-.02-1.13,.82-1.86,2.06-1.85,1.19,0,2.03,.81,2,1.92Z"/><path d="M183.39,366.26c-.03,1.16-1.02,2.1-2.08,2.11-1.05,.02-1.99-.94-1.97-2,.01-1.16,.89-1.88,2.19-1.85,1.25,.03,1.7,.81,1.86,1.74Z"/><path d="M232.77,311.86c-1.25,0-2.05-.74-2-1.91,.05-1.21,.82-1.77,1.93-1.86,1.12-.09,2.07,.81,2.09,1.87,.02,1.15-.77,1.89-2.02,1.9Z"/><path d="M202.04,264.35c-.05,1.42-1.08,2.5-2.11,2.35-1.14-.17-1.73-.89-1.67-2.09,.06-1.27,.84-2.11,1.94-1.96,1.08,.15,1.82,.75,1.83,1.7Z"/><path d="M289,322.6c1.17,.02,2.01,.83,2.01,1.93,0,1.15-.83,1.96-2.05,1.83-1.03-.11-1.96-.46-1.94-1.8,.02-1.12,.86-1.98,1.98-1.96Z"/><path d="M270.37,346.15c0,.98-.72,1.49-1.79,1.51-1.19,.03-2.06-.91-2-2.11,.06-1.16,.62-1.85,1.87-1.81,1.13,.04,1.95,.97,1.92,2.4Z"/><path d="M210.88,256.3c-.95-.14-1.78-.54-1.78-1.83,0-1.1,.91-2.01,2.04-1.9,1.07,.1,1.92,.63,1.95,1.86,.03,1.09-.89,1.88-2.21,1.88Z"/><path d="M238.94,270.23c.02,1.25-.8,2.07-1.97,2.12-1.22,.05-1.88-.53-1.93-1.74-.05-1.13,.83-2.05,1.93-2.02,1.13,.03,1.87,.58,1.97,1.64Z"/><path d="M267.32,280.5c-1.09-.2-1.98-.55-2-1.84-.02-1.15,.8-1.94,2-1.92,1.17,.02,2.08,.89,2,1.95-.09,1.25-.99,1.61-2,1.81Z"/><path d="M162.73,343.89c.02,1.25-.7,2.08-1.85,2.05-1.17-.04-1.85-.66-1.94-1.84-.08-1.18,.72-2.03,1.88-2.07,1.09-.03,1.88,.74,1.9,1.87Z"/><path d="M145.82,329.51c-1.16,0-2.01-.82-1.98-1.95,.04-1.14,.64-1.73,1.79-1.75,1.26-.02,2.04,.67,2.04,1.85,0,1.22-.64,1.83-1.85,1.85Z"/><path d="M189.19,276.45c-1.11-.02-1.98-.86-1.86-1.87,.14-1.14,.78-1.81,2-1.75,1.15,.05,1.72,.74,1.79,1.81,.07,1.02-.85,1.83-1.93,1.8Z"/><path d="M280.78,335.19c-.17,.93-.7,1.71-1.9,1.69-1.2-.02-1.78-.78-1.81-1.93-.02-1.08,.88-1.96,1.86-1.91,.99,.05,1.86,.98,1.85,2.15Z"/><path d="M249.21,280.14c-.03,1.35-.8,1.96-1.9,2-1.01,.03-1.88-.4-1.93-1.63-.04-1.05,.88-1.92,2.02-1.97,1.21-.05,1.7,.62,1.81,1.61Z"/><path d="M226.38,390.67c-1.32-.1-2.08-.55-2.09-1.74-.01-1.12,.84-1.83,2.07-1.83,1.08,0,1.72,.48,1.77,1.57,.05,1.08-.93,2.02-1.74,2Z"/><path d="M215.81,172.66c-.25-1.03-.92-2.23,.41-2.89,.62-.3,1.62-.24,2.27,.04,1.33,.58,.94,1.77,.62,2.84h.02c-1.12-.01-2.24-.02-3.37-.02l.04,.03Z"/><path d="M194.45,271.65c-1.17-.12-1.73-.88-1.73-2,0-1.14,.68-1.66,1.83-1.68,1.26-.02,1.87,.6,1.84,1.8-.03,1.19-.73,1.78-1.94,1.87Z"/><path d="M164.06,278.89c-1.18-.18-1.87-.78-1.85-1.98,.02-1.21,.69-1.79,1.89-1.79,1.25,0,1.8,.72,1.81,1.88,0,1.23-.81,1.71-1.85,1.89Z"/><path d="M279.76,268.92c-.02,1.16-.7,1.72-1.77,1.83-1.12,.11-2.03-.68-2.01-1.72,.02-1.12,.66-1.77,1.74-1.86,1.07-.09,2.01,.77,2.04,1.75Z"/><path d="M242.07,273.68c1.32,0,1.82,.72,1.82,1.8,0,1.13-.59,1.75-1.77,1.71-1.14-.04-1.79-.63-1.72-1.78,.06-1.06,.58-1.79,1.67-1.74Z"/><path d="M270.9,273.32c.15-.79,.78-1.4,1.91-1.3,1.01,.1,1.66,.63,1.61,1.76-.05,1.18-.73,1.78-1.83,1.68-1.01-.09-1.82-.59-1.69-2.14Z"/><path d="M185.82,279.35c.02,1.02-.85,1.9-1.87,1.88-1.03-.02-1.51-.62-1.59-1.58-.09-1.11,.68-1.96,1.74-1.94,1.04,.03,1.64,.57,1.73,1.64Z"/><path d="M201.65,389.98c-1.09,0-1.7-.6-1.66-1.65,.04-1.01,.49-1.8,1.71-1.82,1.1-.02,1.67,.53,1.76,1.57,.09,1.05-.77,1.9-1.81,1.9Z"/><path d="M181.19,284.59c-.65,.44-1.26,1.19-1.95,1.26-1.04,.11-1.75-.67-1.76-1.77-.01-.96,.46-1.6,1.52-1.63,1.13-.03,1.94,.71,2.19,2.14Z"/><path d="M153.81,268.95c-1.14-.05-1.79-.53-1.8-1.64,0-1.12,.52-1.79,1.69-1.83,1.1-.04,1.71,.48,1.72,1.58,0,1.11-.59,1.74-1.61,1.89Z"/><path d="M180.76,208.39c1.17,0,1.76,.65,1.74,1.76-.01,1.05-.58,1.65-1.7,1.62-1.11-.03-1.65-.69-1.67-1.71-.02-1.02,.44-1.73,1.63-1.67Z"/><path d="M189.55,202.23c-1.17,.04-1.58-.72-1.57-1.63,.01-1.07,.59-1.79,1.78-1.77,1.14,.01,1.66,.73,1.63,1.73-.04,1.1-.73,1.71-1.84,1.67Z"/><path d="M206.04,391.35c.97,.1,1.59,.75,1.58,1.83-.01,1.05-.62,1.6-1.74,1.56-1.14-.04-1.63-.74-1.64-1.72-.01-1.01,.51-1.69,1.8-1.67Z"/><path d="M243.64,203.03c-.22-.31-.9-.86-1-1.51-.17-1.08,.56-1.81,1.66-1.84,1.01-.03,1.74,.53,1.7,1.63-.04,1.07-.61,1.76-2.35,1.72Z"/><path d="M185.16,206.98c-1.3,0-1.84-.61-1.82-1.67,.02-1.03,.52-1.69,1.65-1.68,1.11,0,1.68,.67,1.67,1.68-.01,.99-.53,1.7-1.49,1.67Z"/><path d="M261.26,292.37c1.05,.1,1.65,.77,1.7,1.83,.04,.99-.49,1.55-1.55,1.54-1.17-.02-1.73-.65-1.75-1.75-.01-.99,.5-1.57,1.6-1.61Z"/><path d="M250.17,206.35c-.05,1.09-.65,1.51-1.66,1.51-1.21,0-1.73-.69-1.72-1.8,.01-1.02,.67-1.59,1.64-1.55,1.11,.04,1.69,.74,1.74,1.84Z"/><path d="M241.4,196.41c-.1,1.33-.69,1.85-1.78,1.81-1.22-.05-1.78-.89-1.55-1.9,.13-.58,.95-1.33,1.54-1.41,1.05-.15,1.7,.62,1.8,1.5Z"/><path d="M256.97,217.48c-1.08,0-1.51-.61-1.49-1.61,.02-1.09,.68-1.67,1.69-1.68,1.03-.01,1.7,.58,1.67,1.67-.03,1.17-.74,1.66-1.87,1.62Z"/><path d="M173.79,219.52c-.42,.31-.98,1.04-1.64,1.16-.97,.17-1.71-.48-1.74-1.58-.03-1.06,.47-1.69,1.61-1.71,1.15-.02,1.59,.63,1.77,2.14Z"/><path d="M237.24,191.21c-.11,1.6-.7,2.18-1.77,2.14-1.1-.04-1.62-.71-1.57-1.77,.05-1.01,.77-1.69,1.65-1.54,.7,.11,1.29,.87,1.7,1.17Z"/><path d="M204.56,187.14c-.6,.43-1.15,1.1-1.82,1.23-1.01,.21-1.71-.41-1.72-1.52-.01-1.05,.6-1.85,1.59-1.72,.7,.09,1.31,.87,1.95,1.34,0,.22,0,.45,0,.67Z"/><path d="M196.77,191.91c.15-1.53,.61-2.17,1.75-2.13,1.07,.04,1.57,.68,1.53,1.63-.05,.98-.63,1.84-1.7,1.63-.65-.13-1.19-.84-1.58-1.13Z"/><path d="M163.2,297.63c.11-1.62,.73-2.3,1.82-2.28,.93,.01,1.6,.55,1.56,1.62-.05,1.12-.7,1.89-1.77,1.77-.65-.07-1.22-.81-1.61-1.1Z"/><path d="M227.76,180.92c.46,.58,1.2,1.12,1.32,1.76,.19,1-.46,1.71-1.59,1.69-1-.02-1.72-.6-1.58-1.56,.1-.66,.75-1.25,1.16-1.87,.23,0,.46-.02,.69-.02Z"/><path d="M260.78,222.3c-.27-.37-.94-.91-1.09-1.57-.24-1.06,.5-1.73,1.54-1.77,.97-.04,1.62,.58,1.69,1.56,.07,1.08-.53,1.67-2.14,1.79Z"/><path d="M193.69,197.72c-.44-.58-1.16-1.11-1.27-1.74-.18-.98,.52-1.8,1.52-1.83,.99-.03,1.77,.69,1.63,1.72-.09,.65-.75,1.23-1.16,1.84-.24,0-.48,.02-.72,.02Z"/><path d="M175.72,213.17c1.72-.04,2.31,.75,2.1,1.67-.14,.63-.98,1.46-1.58,1.53-.94,.11-1.73-.7-1.54-1.72,.12-.64,.8-1.18,1.02-1.48Z"/><path d="M271.99,303.03c-.59,.44-1.13,1.13-1.78,1.25-.95,.18-1.78-.33-1.78-1.48,0-1.05,.62-1.78,1.66-1.63,.67,.1,1.26,.73,1.89,1.13,0,.24,0,.49,.01,.73Z"/><path d="M160.18,302.83c-.38-.59-1.01-1.15-1.08-1.78-.11-.98,.54-1.88,1.58-1.67,.62,.13,1.49,1.02,1.5,1.57,0,.63-.82,1.27-1.29,1.91-.23-.01-.47-.03-.7-.04Z"/><path d="M252.6,212.68c-1.05,.04-1.61-.5-1.56-1.53,.05-.96,.6-1.57,1.6-1.59,1-.02,1.62,.52,1.64,1.51,.03,1.09-.61,1.62-1.69,1.61Z"/><path d="M270.96,228.98c-.16,1.52-.62,2.17-1.77,2.1-1.07-.07-1.67-.79-1.42-1.67,.18-.65,1-1.46,1.61-1.53,.54-.06,1.19,.8,1.58,1.1Z"/><path d="M169.8,291.06c.45,.59,1.2,1.14,1.28,1.78,.12,.96-.51,1.67-1.65,1.65-1.06-.01-1.67-.62-1.49-1.58,.13-.67,.77-1.23,1.18-1.84,.23,0,.45,0,.68,0Z"/><path d="M286.99,259.26c1.03-.06,1.48,.58,1.44,1.46-.04,1.04-.78,1.73-1.75,1.57-.52-.08-1.24-.87-1.31-1.41-.13-.98,.48-1.68,1.62-1.62Z"/><path d="M168.05,221.85c.42,.61,1.07,1.17,1.21,1.83,.19,.96-.56,1.43-1.49,1.42-.94,0-1.63-.51-1.48-1.46,.1-.63,.68-1.19,1.04-1.77,.24,0,.48-.01,.72-.02Z"/><path d="M274.32,308.35c-1.37-.25-1.82-.8-1.78-1.74,.04-.95,.61-1.44,1.53-1.45,.93-.01,1.66,.47,1.47,1.41-.13,.65-.79,1.19-1.22,1.78Z"/><path d="M284.27,265.14c-.58,.37-1.11,.95-1.73,1.05-.97,.16-1.41-.6-1.41-1.49,0-.92,.54-1.62,1.47-1.44,.61,.12,1.13,.76,1.69,1.16,0,.24,0,.47-.01,.71Z"/><path d="M149.12,264.14c-1.01-.04-1.4-.66-1.39-1.56,.01-.94,.62-1.66,1.47-1.46,.57,.13,1.23,.96,1.36,1.58,.17,.86-.43,1.48-1.44,1.45Z"/><path d="M265.83,300.31c-1.31-.45-1.83-1.13-1.52-1.98,.2-.54,.94-1.19,1.49-1.24,.9-.08,1.52,.7,1.28,1.6-.17,.61-.82,1.08-1.25,1.62Z"/><path d="M265.13,223.02c.79,.95,1.6,1.5,1.6,2.05,0,.53-.83,1.46-1.33,1.49-.53,.03-1.45-.76-1.54-1.3-.09-.53,.64-1.21,1.27-2.24Z"/><path d="M222.04,391.69c.42,.56,1.12,1.07,1.21,1.68,.15,1.03-.67,1.45-1.64,1.45-.91,0-1.39-.52-1.38-1.4,0-.93,.48-1.48,1.81-1.73Z"/><path d="M215.78,172.64c.13,.53,.49,1.13,.34,1.56-.2,.56-.72,1.23-1.25,1.39-.39,.12-1.34-.43-1.43-.82-.11-.49,.27-1.28,.7-1.65,.39-.34,1.11-.31,1.68-.44,0,0-.04-.03-.04-.03Z"/><path d="M231.47,188.6c-.94,.02-1.73-.37-1.5-1.34,.14-.59,.92-1.32,1.5-1.41,.42-.06,1.28,.75,1.42,1.3,.23,.91-.46,1.44-1.42,1.45Z"/><path d="M223.35,180.01c-.41-.56-1.15-1.13-1.13-1.68,.01-.48,.9-1.32,1.35-1.3,.53,.03,1.3,.77,1.42,1.33,.1,.45-.61,1.07-.97,1.62-.23,0-.45,.02-.68,.03Z"/><path d="M160.04,230.25c.35,.62,.99,1.25,.96,1.85-.02,.49-.84,.94-1.31,1.41-.46-.55-1.19-1.06-1.3-1.68-.08-.46,.65-1.06,1.01-1.6,.21,0,.43,.01,.64,.02Z"/><path d="M280.09,243.65c-.36-.52-1.09-1.1-1-1.53,.11-.55,.84-1.32,1.35-1.36,.47-.04,1.32,.7,1.44,1.22,.19,.86-.44,1.46-1.78,1.68Z"/><path d="M287.78,248.12c.68,.93,1.25,1.38,1.34,1.91,.16,1.01-.68,1.49-1.5,1.36-.52-.08-1.34-.84-1.3-1.2,.07-.6,.74-1.12,1.46-2.07Z"/><path d="M147.08,258.49c-.91,.71-1.38,1.34-1.96,1.46-.86,.18-1.41-.44-1.4-1.34,0-.94,.49-1.62,1.47-1.43,.53,.1,.98,.66,1.89,1.31Z"/><path d="M144.88,246.29c.3,.63,.85,1.29,.81,1.89-.03,.44-.86,.82-1.34,1.23-.42-.51-1.14-1.01-1.17-1.54-.03-.52,.66-1.08,1.03-1.62l.67,.03Z"/><path d="M165.6,227.97c-.92,.68-1.49,1.43-1.98,1.37-.5-.06-1.17-.84-1.29-1.41-.2-.91,.59-1.37,1.39-1.22,.54,.1,1,.65,1.88,1.27Z"/><path d="M150.28,243.99c-.91,.7-1.45,1.46-1.94,1.42-.49-.04-1.29-.89-1.26-1.34,.03-.5,.79-1.19,1.35-1.33,.38-.1,.96,.61,1.86,1.25Z"/><path d="M219.12,172.65c.55,.21,1.28,.27,1.59,.67,.32,.41,.4,1.2,.24,1.71-.1,.31-1.01,.68-1.29,.53-.47-.25-.91-.87-1.01-1.39-.09-.46,.31-1.01,.49-1.53,0,0-.02,.01-.02,.01Z"/><path d="M151.66,241.81c-.36-.51-.94-.99-1.04-1.55-.17-.97,.64-1.37,1.42-1.19,.52,.12,1.26,.73,1.3,1.17,.04,.49-.61,1.04-.95,1.56-.24,0-.48,0-.72,.01Z"/><path d="M206.63,183.95c-.33-.55-.95-1.13-.9-1.64,.05-.45,.87-1.16,1.31-1.14,.45,.03,1.14,.79,1.19,1.28,.05,.45-.62,.98-.97,1.48-.21,0-.42,0-.63,.01Z"/><path d="M276.83,236.04c.68,.87,1.29,1.31,1.36,1.83,.12,.8-.41,1.56-1.31,1.35-.5-.12-1.15-.78-1.2-1.26-.06-.46,.56-1,1.15-1.92Z"/><path d="M273.01,235.81c-.63-.89-1.34-1.45-1.26-1.86,.11-.54,.82-.97,1.28-1.44,.43,.46,1.15,.88,1.21,1.38,.05,.47-.61,1.01-1.23,1.92Z"/><path d="M156.48,302.94c.58,.94,1.2,1.51,1.17,2.06-.02,.39-.93,1.05-1.4,1.01-.42-.04-1.02-.85-1.06-1.35-.04-.41,.63-.89,1.29-1.71Z"/><path d="M282.5,315.25c-.49-.09-1.1-.03-1.44-.3-.47-.39-.85-.99-1.02-1.57-.06-.21,.7-.95,.91-.89,.55,.18,1.18,.57,1.44,1.05,.25,.46,.07,1.16,.07,1.75l.04-.04Z"/><path d="M210.99,180.2c-.62-.87-1.27-1.4-1.2-1.78,.11-.55,.74-.99,1.15-1.48,.45,.45,1.17,.85,1.25,1.36,.07,.43-.59,.98-1.21,1.89Z"/><path d="M154.15,308.37c-.8,.49-1.34,1.09-1.76,1.01-.46-.08-.8-.79-1.19-1.23,.46-.42,.89-1.09,1.41-1.17,.35-.06,.83,.71,1.54,1.38Z"/><path d="M155.71,234.32c.59,.9,1.17,1.41,1.19,1.94,.01,.37-.69,.99-1.17,1.1-.82,.18-1.38-.42-1.23-1.23,.09-.51,.61-.95,1.2-1.81Z"/><path d="M285.87,246.12c-.73,.61-1.19,1.29-1.63,1.27-.45-.01-1.28-.76-1.24-1.09,.07-.52,.66-1.21,1.17-1.35,.35-.1,.93,.6,1.7,1.16Z"/><path d="M279.51,310.25c-.84,.57-1.35,1.18-1.76,1.12-.45-.06-1.15-.77-1.12-1.15,.03-.44,.7-1.12,1.15-1.17,.42-.05,.91,.6,1.73,1.21Z"/><path d="M209.79,395.53c.53,.92,1.1,1.47,1.01,1.87-.1,.45-.8,1.08-1.22,1.06-.39-.01-1.02-.75-1.05-1.2-.03-.41,.6-.88,1.26-1.73Z"/><path d="M215.93,397.41c.82-.58,1.31-1.19,1.75-1.16,.42,.03,.8,.73,1.2,1.14-.42,.4-.8,1.03-1.27,1.11-.38,.07-.87-.53-1.68-1.09Z"/><path d="M149.23,313.19c-.58-.83-1.16-1.31-1.17-1.79,0-.4,.69-.8,1.07-1.2,.4,.42,1.04,.8,1.13,1.28,.07,.39-.51,.9-1.03,1.72Z"/><path d="M145.87,312.92c.56,.68,1.15,1.09,1.1,1.39-.08,.45-.61,.82-.94,1.23-.38-.36-.95-.67-1.07-1.11-.09-.3,.44-.78,.91-1.52Z"/><path d="M282.45,315.29c.54,.07,1.13,.04,1.61,.25,.38,.17,.71,.61,.9,1.01,.07,.15-.33,.75-.51,.74-.45,0-1.06-.1-1.3-.41-.35-.43-.44-1.08-.65-1.64,0,0-.04,.04-.04,.04Z"/><path d="M143,320.21c-.26-.47-.66-.91-.73-1.41-.05-.38,.26-.87,.54-1.2,.11-.13,.8-.02,.85,.12,.16,.41,.25,.93,.14,1.34-.12,.42-.52,.77-.8,1.15,0,0,0,0,0,0Z"/></g><g><path class="cls-1" d="M389.77,246.62c-.7,.7-1.9,1.2-2.7,1.1l1.5-1.6c-.6-.2-1.6-.1-2.2,.5-.6,.6-2.2,1.9-4.2,3.5l1.8,.4c-10.9,9.4-24.3,17.7-35.9,22.8l-.9,5.5c-1.9-1-3.4,0-5.5,0-6.1,0-8.1-6.7-10.3-9.6,.4-1.1,.7-2.4,.8-3.8l2.5-1.1c1.4-.7,2.4-1.3,3.1-3,1.6-3.7,2.3-6.9,3.5-11.3l-.4-1.5c1.4-4.5,4.5-7.9,4.7-11.8,.1-2.8-3.6-4.6-3.5-7.1,.1-2.6,5-3.9,7.6-5.3l1,.7c4.7-5.1,5-15.4,10.3-15.4,.9,0,4.5,5.9,5,7.2,.4,1.6-.5,3.5-.9,5.6,3.4,0,7.1-1,12.2-.3-1,1.9,2,1.4,2.6,0,1,.8,3.8,.5,6,1.2,9.2,2.8,9.7,10.5,10.2,14.8-1.7,2.6-4.1,6.4-6.3,8.5Zm-41.3,24.1l-.2,1,2.8-1.5,.5-1.2-3.1,1.7Zm8.9-32.4l-.1,3.1c-.4,.5-1.2,.8-1.8,1.5v.1c1.6-1.3,1.4,3.2,.5,3.2-.5-.1-.9-.3-1.3-.6v.1c.4,.6,.6,1.3,.7,2.1-.1,2.3-2.1,5.1-2.6,8.9,3.6-2.2,11.7-5.4,16.7-9.7,.4,.4,.8,.4,1.5,.6l-.6-1.4,.9-.6c.4,.7,.8,.8,1,.8,1,0,2.9-1.6,6.4-5.7,2.6,.9,7.8-5.8,7.2-9.5-16.9,0-23.1,5.4-28.5,7.1Zm-4.6,31.2l5.1-2.5c-.4-.2-.7-1.1-.2-1.7v-.1c-1.5,.8-4,3.1-4.9,4.2v.1Zm24.2-14.8c-1.8,0-3.4,1-5.4,2.3-2.2,1.4-5.7,3.4-8.9,5.4-.1,.6-.4,1.3-1.1,1.7-.7-.7-1.8-.4-2.9,.6,.6,0,1.6,.3,2.3,.7,5.7-3.5,11.4-7.7,16-10.6v-.1Zm2.8-3l-3.3,1.8c.6,.4,1.4,.6,2.1,0l2.1-1.5-.9-.3Zm9.2-7.8l-.8,.9,1.3,.3,.8-.9-1.3-.3Z"/><path class="cls-1" d="M452.67,256.52c.5,1-.2,2.1-1.3,2.1l-.7-1.3c-.8,.2-1.4,.6-.8,1.7-1.1,0-2.9,.9-2.9,2,0,1.5-1.7,1-2.9,1.3-1.1,1.1-2,2.4-3.2,4l-1.1-1c-2.6,1.6-1.2,2.7-3.9,4-1.6,.8-3.5,.7-5.3,1.1-.3,.3,.9,.7,.8,1.1l-1.8,.6-2.8-1.7c-1.6,1-.4,3.3-2.4,4-2.4,.8-4.3,1.5-7.1,2.4-1.7-1.7-3.7-1.1-5.1,0-3.5-2.2-7.8-5.5-10.4-7.7-2.4-1.9-3.2-6.8-3.2-11.6,0-24.3,30.3-40,37.8-40,2.9,0,4.3,1.8,7.4,4.2,0,4.6,4.9,8.3,9,11.1,3.9,2.6,5.2,7.6,5.2,13,0,3.3-1.7,7.8-5.3,10.7Zm-10.8-20.5c-.3-.9-.5-1.5-.9-1.1-.4,.4-.8,.6-1.1,.6-.7,0-1.1-.8-1.2-.8-5.3,0-14.5,6.1-18.7,12.7-4.8,2.3-8.1,8-10.3,14.9,2.3-.2,5.3-.4,7.1-1.1l18-7.5c2-.8,6.3-2.9,8.2-5.3l4.5-5.9-5.6-6.5Zm-24.8,11.2c-1.5-.9-3.3,.5-3.5,1.6,0,.6,.3,1.1,1.2,1.2l2.3-2.8Zm.4,27.8c-.4-.6-1.1-1.1-1.8-1.1-.4,.1-.8,.2-1.2,.6l3,.5Zm13.1-7c0,.3-.4,1-.2,1.2,.4,.3,1.2,0,1.7-.2,0-.7-.5-1-1.5-1Zm5.4-2.9c-1.8,.9-2.5,1.4-2.4,2.5l2.9-1.5-.5-1Zm2.8-2.4l-1.6,1.7,.4,1.1,2-1.2c-.3-.3-.5-1.4-.8-1.6Z"/><path class="cls-1" d="M516.97,257.82c-2.1,1.4-3.7,1.8-4.7,1.7-1.2,0-1.5-.2-1.7-.5-1.8,1.8,1.1,3.3,7.9,.6,.5-.1,1.3,.2,.9,.4-1.9,.9-6.1,3.1-7.5,3.1-2.3,0-4,.6-6.1,1.3-6.3,2.2-16.3,6-23.5,8.9-1.3,.5-3.4,2.5-4.6,2.6-1.2,.2-3.7,.4-5,.4-.8,0-1.4-.5-1.7-1.1h-2.3c-1.5-1.5-3.2-4.6-4.5-4.6h-1.2c1.7-17.6,19.7-44.6,28.8-56.3v-1.6c5.6,0,8.5,4.5,8.5,9.3,0,1.2-5.1,12.6-6.9,15.9-1.2,2.1-4.4,5.1-6.1,7.5-.9,1.3-1.5,3.9-2.3,5.3-1.1,2-4.5,3.7-3.3,6.6,6.8-2.1,8.1-2.3,8.9-2.5,1.1-.3,2.4-.6,3.7-.6,1.6,0,3.1,.5,3.9,1.9,.5-.5,4.5-2.1,5-2.1,1.4,0,1.5,.5,2.9,.5,1.3,0,6.5-1.7,9.9-2.7,.1,.2,.5,.4,1.2,.5v.1c-3.1,1-7.2,2-9.8,3.6l1,.6c3.1-1.1,9.4-3.9,12.9-4.7,1.2,.4,2.6,1.3,2.7,1.5,1.5-.6,4.1-2,4.2-1.3,.3,1.4-6.1,4.4-11.2,5.7Zm-36.4-6.8c-.7,1.8-1.9,3.5-.6,4.1l1.8-3.8-1.2-.3Zm26.2,10.5c-5.3,1-16.4,5.1-23.3,8.5l.1,.4,24.8-8.2-1.6-.7Zm-20.4-18.2c-1,0-1.4,1.2-1.4,1.8h1.4v-1.8Zm12.8,14.4l2.2-1.2c-.5-.3-1.6-.4-2.8,.4l.6,.8Zm19.2-5.9c-.3,.1-1.1-.4-.8-.5l2-.6c1.1-.3,1,.3,.5,.5l-1.7,.6Zm2.6,7.5c-.7,.3-1.1,.1-1.4-.3v-.1c5.9-2.6,6.6-3,7.4-2.4l-6,2.8Zm3.8-7.2c-.5-.4-1-.7-1.5-.9,.4-.3,3.9-1.5,3.9-1,0,.6-1.7,1.4-2.4,1.9Z"/><path class="cls-1" d="M563.67,245.42l-.8-.7c-6.8,4-14.2,9.4-17.3,7.4-1.2,2-3.5,7.9-4,7.9s-.2-2.6-1.3-.7c-1.1,2-3.4,6-3.2,8.9,0,.6,1.6-.4,1.4,.2l-4.5,13.1c-.3,1-.8,3.3-.9,4.6-.9,0-6.4-2-7.8-4-1.6-2.4-2.1-5.9-2.1-7.9,3.2-9.9,10.7-27.4,16.1-39-1.5-1.1-3-2.5-3.8-3.5,.7-.9,1.3-2.3,1.5-3.5l-2.5-.6c.7-1,1.9-1.7,2.7-2.2v-1.6c9.5,.6,8.5-11.1,12.3-11.1,1,0,1.5,.2,2.2,.4,1.5,.5,2.8,1.3,4.5,1.5,.8,2,1.8,3.8,2.2,6,3.1,.1,6.2,.2,9.8,.8,5.3,.8,8.5,2.8,8.5,8.5,0,7-5.3,10.1-13,15.5Zm-24.5,21.5c-.4,0-1,.6-1.3,.3,.3-1.4,1.4-3.9,2-4.1,1.4-.6-.2,2.5-.7,3.8Zm14.9-20.3h-1.3c-1.3,0-2.4,1.4-2.6,2.8,2.4-.7,5.2-2.1,7.3-3.3-1.2-1.3-1.8,.5-3.4,.5Zm3-1.6c.8,0,.9,1,1.7,.5l1.7-1c-.5-.5-2.6-.7-3.4,.5Zm4.3-2c-.4,.3,.4,1,1.4,.3,2-1.2,5.6-2.9,4.8-4l-6.2,3.7Zm8-5c-.5,.3-1,.4-1.2,1-.3,.8,2.2,.2,2.2-.9,0-.3-.5-.4-1-.1Z"/><path class="cls-1" d="M570.57,261.62l-1.9,.4c0-.3,1.3-1.3,2.2-2.1,.2-.2,.5-.2,.3,.2l-.6,1.5Zm46.2,12.1c1.3,.7-.5,3.7-1.6,5.8-1.5,2.8-3,8.3-4.5,8.3-2.7-1.6-8.6-5.5-8.6-9.9,0-6,4.4-15.1,7.4-20.6l-.5-.9c-2.4,0-11,1.2-11.9,1.2-.3-.4-.8-.7-1.3-.7-1.6,0-2.4,1.2-3,2.7-1.9,4.6-5.1,16.4-6.1,21-2.1,0-2.6-1.1-3.8-2.3,0,0-.1,.1-.2,.1-.1,.1-.2,.1-.3,.1h-.5c-.4,0-.7-.2-1.1-.3l.5-1.2c-6-3.9-2.7-7.6-1.5-15.4-2.3-.5-5.5-.1-8.1-.1,1.1-2,3.2-2.4,5-3.3l-1.6-.9,5.8-2.4c.6-1.5,1.4-2.2,2.1-3.6,1.8-3.3,2.4-7.9,4.2-11.3,4.7-8.9,11-18.6,14.1-26.4,.4-.3,.1-.8,1.4-.8,5.3,0,4.9,3.1,7.8,5.8,.1,3.4,.8,5.8-.7,10.9h-.7c-1,3.2-4.6,8.1-6.7,12.5-1.9,.9-3.1,2.9-3.1,4.7l2.1-.6c2.8-3.3,6.8-3.7,10.7-3.7,1.3,0,3.3,.6,4.8,1.1,6.2-7.7,10.1-16.6,14.7-25.4,.4-.7,1.3-1.2,2.3-1.2,3.5,0,4.8,5.1,4.8,8.9,0,2.3-.3,5-1.9,6.2-.3,2.8-1.3,5.5-3.6,6.8,.8,1.9-2.3,5.6-3.8,8.3-1.3-.4-3,1-3.7,2.2-.7,1.2-1.9,3.5-2.8,5.4-.2,.4,.6,.9,1.1-.1l1.2-2.5c.5-1,1.4-1.8,2.3-1.7-3.2,5.7-4.7,11.5-8.6,17.1l-1.1-.4c-.4-.2-1.3,.4-1.7,1-.4,.7-1.2,1.9-2,3.3-.9,1.4,0,3.8,.1,4.8-.7,1.2-2.1,2.2-2.1,3.5,.7,1.5,2.5-1.4,4.7-6Zm-26.6-12.9l.9,.3,1.1-3c-.9,0-1.5,1.4-2,2.7Zm13.4,3.1l1.1,.4c-.6,2.7-2,3.6-2.2,3.6l1.1-4Zm7.7,12.1l-1,2,.6,.8,1.7-3.4c-.3,0-1,0-1.3,.6Zm4.7-3.9c-.2,.4-.5,.4-.5,.1l-.1-1.1,1.5-2.2c.2-.3,.5-.5,.7-.3l.3,.3-1.9,3.2Zm5.8-14.8l-4.1,8c1.2-.1,2.1-1.8,2.7-3.1l2.7-5.5c-.4-.1-1.1,.2-1.3,.6Z"/><path class="cls-1" d="M675.77,230.42h-1.1c-2.7,3.8-4.3,10.8-8.9,13.3l.4,1.2-3.9,2.2c-3.9,5.6-5.6,12.5-7.8,18.2-.3,.8-1.6,2.4-.3,2.8,.3,.1,1-2,1.1-2.3,2.3-5.2,4-13,7.6-17.1,1.4-.5,.4,.7,.2,1-3.5,5.9-5.2,12.7-8.1,19.7-2,4.7-2.7,9-2.2,11-1.8-.6-3.4-1.3-5-2.2v-3.2c-.7,.6-1,1.3-1.1,2.4-2.3-1.7-4.2-4-5.5-7.5,0-18,18.6-42.6,25.8-55.8,.6-.8,1.9-1.4,3-1.4,1,0,2,.4,3.1,.7v2.4c2,.8,3.6,3.1,3.6,5.3,0,2.7-.4,6.3-.9,9.3Zm-23.4,39.9l-1.1,2.7c-.1,.3,.2,1.3,.8,.3l1.4-3.5c-1.4-1.4-1,.2-1.1,.5Z"/><path class="cls-1" d="M711.77,230.42h-1.1c-2.7,3.8-4.3,10.8-8.9,13.3l.4,1.2-3.9,2.2c-3.9,5.6-5.6,12.5-7.8,18.2-.3,.8-1.6,2.4-.3,2.8,.3,.1,1-2,1.1-2.3,2.3-5.2,4-13,7.6-17.1,1.4-.5,.4,.7,.2,1-3.5,5.9-5.2,12.7-8.1,19.7-2,4.7-2.7,9-2.2,11-1.8-.6-3.4-1.3-5-2.2v-3.2c-.7,.6-1,1.3-1.1,2.4-2.3-1.7-4.2-4-5.5-7.5,0-18,18.6-42.6,25.8-55.8,.6-.8,1.9-1.4,3-1.4,1,0,2,.4,3.1,.7v2.4c2,.8,3.6,3.1,3.6,5.3,0,2.7-.4,6.3-.9,9.3Zm-23.4,39.9l-1.1,2.7c-.1,.3,.2,1.3,.8,.3l1.4-3.5c-1.4-1.4-1,.2-1.1,.5Z"/><path class="cls-1" d="M747.77,230.42h-1.1c-2.7,3.8-4.3,10.8-8.9,13.3l.4,1.2-3.9,2.2c-3.9,5.6-5.6,12.5-7.8,18.2-.3,.8-1.6,2.4-.3,2.8,.3,.1,1-2,1.1-2.3,2.3-5.2,4-13,7.6-17.1,1.4-.5,.4,.7,.2,1-3.5,5.9-5.2,12.7-8.1,19.7-2,4.7-2.7,9-2.2,11-1.8-.6-3.4-1.3-5-2.2v-3.2c-.7,.6-1,1.3-1.1,2.4-2.3-1.7-4.2-4-5.5-7.5,0-18,18.6-42.6,25.8-55.8,.6-.8,1.9-1.4,3-1.4,1,0,2,.4,3.1,.7v2.4c2,.8,3.6,3.1,3.6,5.3,0,2.7-.4,6.3-.9,9.3Zm-23.4,39.9l-1.1,2.7c-.1,.3,.2,1.3,.8,.3l1.4-3.5c-1.4-1.4-1,.2-1.1,.5Z"/><path class="cls-1" d="M783.76,230.42h-1.1c-2.7,3.8-4.3,10.8-8.9,13.3l.4,1.2-3.9,2.2c-3.9,5.6-5.6,12.5-7.8,18.2-.3,.8-1.6,2.4-.3,2.8,.3,.1,1-2,1.1-2.3,2.3-5.2,4-13,7.6-17.1,1.4-.5,.4,.7,.2,1-3.5,5.9-5.2,12.7-8.1,19.7-2,4.7-2.7,9-2.2,11-1.8-.6-3.4-1.3-5-2.2v-3.2c-.7,.6-1,1.3-1.1,2.4-2.3-1.7-4.2-4-5.5-7.5,0-18,18.6-42.6,25.8-55.8,.6-.8,1.9-1.4,3-1.4,1,0,2,.4,3.1,.7v2.4c2,.8,3.6,3.1,3.6,5.3,0,2.7-.4,6.3-.9,9.3Zm-23.4,39.9l-1.1,2.7c-.1,.3,.2,1.3,.8,.3l1.4-3.5c-1.4-1.4-1,.2-1.1,.5Z"/><path class="cls-1" d="M849.87,219.61c1.1-.7,3.1-1.2,5.2-1.3,3.6-.1,6.4,.4,8.1,1.6l-2,1.4,.2,.4c.7,0,2.6-.6,3.2-1l2.8,3c-5.2,2.4-14.5,9.3-19.6,16.3-.6,.8-1-.4-1.6,0-.2,3.6-2.3,5.5-4.7,9.3-.5,.9-.3,2.2-.9,3.6,0,.6-1.5,1.2-1.8,2.1-2.5,7.7-5.9,15.7-9.1,23.9l-4.5-2.1-.6,1.4c-6.4-1.7-7-4.2-7.9-10.9-.3-2.6,.5-7.1-.2-9.3-2.4-7-.1-10-.7-15.1l-.5-3.9c-3.1,1-6.6,4-9.2,8.7l.3,1.6c-5,9.4-9.5,22.4-14,28.4h-2.8c-2.9,0-4.5-6.7-5.7-7.3l-.6-4.4c-.5-3.1,.4-4.2,1.1-6.1,7.1-17.2,18.5-27.6,26.4-35.7,3,1.1,11.2,6.2,12.6,9.9,1.2,3,2.4,9.3,3.4,13.4,6.8-11.8,16.8-26.5,19-27.3l2.1-.3c-6.2,6.1-10.6,13.3-13,16.8-.9,1.5-1.3,2.1-1.1,2.2l.6,.4c2.9-4.5,9.6-14,15.5-19.7Zm-39.6,7l-2.2,2.3c1.2,1,2.3-1,3-1.7l-.8-.6Zm29.8,31.8l-.9-.6c.1-1.4,.2-3.3,1.4-2.8l-.5,3.4Zm7.9-23.2c-.8,1.2-2.4,3.3-1.4,3.8l2.1-3.2c.2-.3-.5-.9-.7-.6Zm-.5-10.6l1.7-2.2-.8-.4c-.5,.4-1.1,1.1-1.7,2.1,.1,.2,.4,.6,.8,.5Zm3.1,7.1l-2,2.6c.6-.1,.8,.1,.9,.5l1.8-2.6c.2-.2-.2-1.1-.7-.5Zm7.6-8.3l.2,.9c1-.7,1.9-.8,1.7-2.3l-1.9,1.4Z"/></g></svg>